<mxfile host="app.diagrams.net" modified="2024-07-22T02:54:23.898Z" agent="Mozilla/5.0 (Macintosh; Intel Mac OS X 10_15_7) AppleWebKit/537.36 (KHTML, like Gecko) Chrome/126.0.0.0 Safari/537.36" etag="xItrr2L_EWrK8k3l9iFb" version="24.7.1" type="github">
  <diagram name="第 1 页" id="oE0Lq-0rsRPEwKzZpxgz">
    <mxGraphModel dx="5607" dy="1368" grid="1" gridSize="10" guides="1" tooltips="1" connect="1" arrows="1" fold="1" page="1" pageScale="1" pageWidth="827" pageHeight="1169" math="0" shadow="0">
      <root>
        <mxCell id="0" />
        <mxCell id="1" parent="0" />
        <mxCell id="4dAgeHiMnEhilsa8S1O4-2" value="&lt;font style=&quot;font-size: 48px;&quot;&gt;MOP结算场景&lt;/font&gt;" style="text;strokeColor=none;fillColor=none;align=left;verticalAlign=middle;spacingLeft=4;spacingRight=4;overflow=hidden;points=[[0,0.5],[1,0.5]];portConstraint=eastwest;rotatable=0;whiteSpace=wrap;html=1;" parent="1" vertex="1">
          <mxGeometry x="-767.5" y="1277" width="377.5" height="110" as="geometry" />
        </mxCell>
        <mxCell id="4dAgeHiMnEhilsa8S1O4-3" value="&lt;font style=&quot;font-size: 36px;&quot;&gt;业务视角&lt;/font&gt;" style="text;html=1;align=center;verticalAlign=middle;resizable=0;points=[];autosize=1;strokeColor=none;fillColor=none;" parent="1" vertex="1">
          <mxGeometry x="1310" y="1500" width="170" height="60" as="geometry" />
        </mxCell>
        <mxCell id="4dAgeHiMnEhilsa8S1O4-12" value="&lt;font style=&quot;font-size: 36px;&quot;&gt;系统视角&lt;/font&gt;" style="text;html=1;align=center;verticalAlign=middle;resizable=0;points=[];autosize=1;strokeColor=none;fillColor=none;" parent="1" vertex="1">
          <mxGeometry x="-692" y="1500" width="170" height="60" as="geometry" />
        </mxCell>
        <mxCell id="4dAgeHiMnEhilsa8S1O4-61" style="edgeStyle=orthogonalEdgeStyle;rounded=0;orthogonalLoop=1;jettySize=auto;html=1;exitX=0.5;exitY=1;exitDx=0;exitDy=0;entryX=0.5;entryY=0;entryDx=0;entryDy=0;" parent="1" source="4dAgeHiMnEhilsa8S1O4-13" target="4dAgeHiMnEhilsa8S1O4-46" edge="1">
          <mxGeometry relative="1" as="geometry" />
        </mxCell>
        <mxCell id="4dAgeHiMnEhilsa8S1O4-63" style="edgeStyle=orthogonalEdgeStyle;rounded=0;orthogonalLoop=1;jettySize=auto;html=1;exitX=0.5;exitY=1;exitDx=0;exitDy=0;" parent="1" source="4dAgeHiMnEhilsa8S1O4-13" target="4dAgeHiMnEhilsa8S1O4-55" edge="1">
          <mxGeometry relative="1" as="geometry" />
        </mxCell>
        <mxCell id="4dAgeHiMnEhilsa8S1O4-64" style="edgeStyle=orthogonalEdgeStyle;rounded=0;orthogonalLoop=1;jettySize=auto;html=1;exitX=0.5;exitY=1;exitDx=0;exitDy=0;" parent="1" source="4dAgeHiMnEhilsa8S1O4-13" target="4dAgeHiMnEhilsa8S1O4-54" edge="1">
          <mxGeometry relative="1" as="geometry" />
        </mxCell>
        <mxCell id="4dAgeHiMnEhilsa8S1O4-65" style="edgeStyle=orthogonalEdgeStyle;rounded=0;orthogonalLoop=1;jettySize=auto;html=1;exitX=0.5;exitY=1;exitDx=0;exitDy=0;entryX=0.5;entryY=0;entryDx=0;entryDy=0;" parent="1" source="4dAgeHiMnEhilsa8S1O4-13" target="4dAgeHiMnEhilsa8S1O4-56" edge="1">
          <mxGeometry relative="1" as="geometry" />
        </mxCell>
        <mxCell id="4dAgeHiMnEhilsa8S1O4-66" style="edgeStyle=orthogonalEdgeStyle;rounded=0;orthogonalLoop=1;jettySize=auto;html=1;exitX=0.5;exitY=1;exitDx=0;exitDy=0;entryX=0.5;entryY=0;entryDx=0;entryDy=0;" parent="1" source="4dAgeHiMnEhilsa8S1O4-13" target="4dAgeHiMnEhilsa8S1O4-48" edge="1">
          <mxGeometry relative="1" as="geometry" />
        </mxCell>
        <mxCell id="4dAgeHiMnEhilsa8S1O4-67" style="edgeStyle=orthogonalEdgeStyle;rounded=0;orthogonalLoop=1;jettySize=auto;html=1;exitX=0.5;exitY=1;exitDx=0;exitDy=0;entryX=0.5;entryY=0;entryDx=0;entryDy=0;" parent="1" source="4dAgeHiMnEhilsa8S1O4-13" target="4dAgeHiMnEhilsa8S1O4-51" edge="1">
          <mxGeometry relative="1" as="geometry" />
        </mxCell>
        <mxCell id="4dAgeHiMnEhilsa8S1O4-68" style="edgeStyle=orthogonalEdgeStyle;rounded=0;orthogonalLoop=1;jettySize=auto;html=1;exitX=0.5;exitY=1;exitDx=0;exitDy=0;entryX=0.5;entryY=0;entryDx=0;entryDy=0;" parent="1" source="4dAgeHiMnEhilsa8S1O4-13" target="4dAgeHiMnEhilsa8S1O4-53" edge="1">
          <mxGeometry relative="1" as="geometry" />
        </mxCell>
        <mxCell id="aZVJwk_nMkxhaGKlptH1-82" style="edgeStyle=orthogonalEdgeStyle;rounded=0;orthogonalLoop=1;jettySize=auto;html=1;exitX=0.5;exitY=1;exitDx=0;exitDy=0;" parent="1" source="4dAgeHiMnEhilsa8S1O4-13" target="aZVJwk_nMkxhaGKlptH1-77" edge="1">
          <mxGeometry relative="1" as="geometry" />
        </mxCell>
        <mxCell id="aZVJwk_nMkxhaGKlptH1-83" style="edgeStyle=orthogonalEdgeStyle;rounded=0;orthogonalLoop=1;jettySize=auto;html=1;entryX=0.5;entryY=0;entryDx=0;entryDy=0;exitX=0.5;exitY=1;exitDx=0;exitDy=0;" parent="1" source="4dAgeHiMnEhilsa8S1O4-13" target="aZVJwk_nMkxhaGKlptH1-78" edge="1">
          <mxGeometry relative="1" as="geometry" />
        </mxCell>
        <mxCell id="aZVJwk_nMkxhaGKlptH1-84" style="edgeStyle=orthogonalEdgeStyle;rounded=0;orthogonalLoop=1;jettySize=auto;html=1;entryX=0.5;entryY=0;entryDx=0;entryDy=0;exitX=0.5;exitY=1;exitDx=0;exitDy=0;" parent="1" source="4dAgeHiMnEhilsa8S1O4-13" target="aZVJwk_nMkxhaGKlptH1-79" edge="1">
          <mxGeometry relative="1" as="geometry" />
        </mxCell>
        <mxCell id="4dAgeHiMnEhilsa8S1O4-13" value="MOP&lt;span style=&quot;background-color: initial;&quot;&gt;-BFF&lt;/span&gt;" style="rounded=1;whiteSpace=wrap;html=1;fillColor=#60a917;strokeColor=#2D7600;fontColor=#ffffff;" parent="1" vertex="1">
          <mxGeometry x="-311" y="1760" width="120" height="60" as="geometry" />
        </mxCell>
        <mxCell id="4dAgeHiMnEhilsa8S1O4-47" style="edgeStyle=orthogonalEdgeStyle;rounded=0;orthogonalLoop=1;jettySize=auto;html=1;exitX=0.5;exitY=1;exitDx=0;exitDy=0;" parent="1" source="4dAgeHiMnEhilsa8S1O4-16" target="4dAgeHiMnEhilsa8S1O4-13" edge="1">
          <mxGeometry relative="1" as="geometry" />
        </mxCell>
        <mxCell id="aZVJwk_nMkxhaGKlptH1-69" style="edgeStyle=orthogonalEdgeStyle;rounded=0;orthogonalLoop=1;jettySize=auto;html=1;entryX=0.5;entryY=0;entryDx=0;entryDy=0;" parent="1" source="4dAgeHiMnEhilsa8S1O4-16" target="4dAgeHiMnEhilsa8S1O4-60" edge="1">
          <mxGeometry relative="1" as="geometry" />
        </mxCell>
        <mxCell id="4dAgeHiMnEhilsa8S1O4-16" value="KONG" style="rounded=1;whiteSpace=wrap;html=1;fillColor=#dae8fc;strokeColor=#6c8ebf;" parent="1" vertex="1">
          <mxGeometry x="-311" y="1630" width="120" height="60" as="geometry" />
        </mxCell>
        <mxCell id="4dAgeHiMnEhilsa8S1O4-17" value="" style="edgeStyle=orthogonalEdgeStyle;rounded=0;orthogonalLoop=1;jettySize=auto;html=1;" parent="1" source="4dAgeHiMnEhilsa8S1O4-18" target="4dAgeHiMnEhilsa8S1O4-16" edge="1">
          <mxGeometry relative="1" as="geometry" />
        </mxCell>
        <mxCell id="4dAgeHiMnEhilsa8S1O4-18" value="APP" style="rounded=1;whiteSpace=wrap;html=1;fillColor=#f5f5f5;strokeColor=#666666;fontColor=#333333;" parent="1" vertex="1">
          <mxGeometry x="-311" y="1530" width="120" height="60" as="geometry" />
        </mxCell>
        <mxCell id="4dAgeHiMnEhilsa8S1O4-19" value="峰值15K/min" style="text;strokeColor=none;fillColor=none;align=left;verticalAlign=middle;spacingLeft=4;spacingRight=4;overflow=hidden;points=[[0,0.5],[1,0.5]];portConstraint=eastwest;rotatable=0;whiteSpace=wrap;html=1;" parent="1" vertex="1">
          <mxGeometry x="-420" y="1590" width="80" height="30" as="geometry" />
        </mxCell>
        <mxCell id="4dAgeHiMnEhilsa8S1O4-22" value="&lt;font style=&quot;font-size: 18px;&quot;&gt;1:1&lt;/font&gt;" style="text;html=1;align=center;verticalAlign=middle;resizable=0;points=[];autosize=1;strokeColor=none;fillColor=none;" parent="1" vertex="1">
          <mxGeometry x="-311" y="1710" width="50" height="40" as="geometry" />
        </mxCell>
        <mxCell id="4dAgeHiMnEhilsa8S1O4-46" value="StarEngine" style="rounded=1;whiteSpace=wrap;html=1;fillColor=#b0e3e6;strokeColor=#0e8088;" parent="1" vertex="1">
          <mxGeometry x="-311" y="1940" width="120" height="60" as="geometry" />
        </mxCell>
        <mxCell id="4dAgeHiMnEhilsa8S1O4-48" value="CAC" style="rounded=1;whiteSpace=wrap;html=1;fillColor=#f8cecc;strokeColor=#b85450;" parent="1" vertex="1">
          <mxGeometry x="-140" y="1940" width="120" height="60" as="geometry" />
        </mxCell>
        <mxCell id="4dAgeHiMnEhilsa8S1O4-51" value="CC" style="rounded=1;whiteSpace=wrap;html=1;fillColor=#6a00ff;strokeColor=#3700CC;fontColor=#ffffff;" parent="1" vertex="1">
          <mxGeometry x="50" y="1940" width="120" height="60" as="geometry" />
        </mxCell>
        <mxCell id="4dAgeHiMnEhilsa8S1O4-53" value="CRMAdapter" style="rounded=1;whiteSpace=wrap;html=1;fillColor=#76608a;strokeColor=#432D57;fontColor=#ffffff;" parent="1" vertex="1">
          <mxGeometry x="240" y="1940" width="120" height="60" as="geometry" />
        </mxCell>
        <mxCell id="4dAgeHiMnEhilsa8S1O4-54" value="Provision" style="rounded=1;whiteSpace=wrap;html=1;fillColor=#fff2cc;strokeColor=#d6b656;" parent="1" vertex="1">
          <mxGeometry x="-473.5" y="1940" width="120" height="60" as="geometry" />
        </mxCell>
        <mxCell id="4dAgeHiMnEhilsa8S1O4-55" value="OMS" style="rounded=1;whiteSpace=wrap;html=1;fillColor=#e3c800;strokeColor=#B09500;fontColor=#000000;" parent="1" vertex="1">
          <mxGeometry x="-632" y="1940" width="120" height="60" as="geometry" />
        </mxCell>
        <mxCell id="4dAgeHiMnEhilsa8S1O4-56" value="PC" style="rounded=1;whiteSpace=wrap;html=1;fillColor=#e51400;strokeColor=#B20000;fontColor=#ffffff;" parent="1" vertex="1">
          <mxGeometry x="-790" y="1940" width="120" height="60" as="geometry" />
        </mxCell>
        <mxCell id="4dAgeHiMnEhilsa8S1O4-60" value="UPP" style="rounded=1;whiteSpace=wrap;html=1;fillColor=#d0cee2;strokeColor=#56517e;" parent="1" vertex="1">
          <mxGeometry x="1000" y="1940" width="120" height="60" as="geometry" />
        </mxCell>
        <mxCell id="4dAgeHiMnEhilsa8S1O4-70" value="&lt;font style=&quot;font-size: 18px;&quot;&gt;1:2&lt;/font&gt;" style="text;html=1;align=center;verticalAlign=middle;resizable=0;points=[];autosize=1;strokeColor=none;fillColor=none;" parent="1" vertex="1">
          <mxGeometry x="-730" y="1880" width="50" height="40" as="geometry" />
        </mxCell>
        <mxCell id="4dAgeHiMnEhilsa8S1O4-71" value="&lt;font style=&quot;font-size: 18px;&quot;&gt;1:2&lt;/font&gt;" style="text;html=1;align=center;verticalAlign=middle;resizable=0;points=[];autosize=1;strokeColor=none;fillColor=none;" parent="1" vertex="1">
          <mxGeometry x="-572" y="1880" width="50" height="40" as="geometry" />
        </mxCell>
        <mxCell id="4dAgeHiMnEhilsa8S1O4-72" value="&lt;font style=&quot;font-size: 18px;&quot;&gt;1:6&lt;/font&gt;" style="text;html=1;align=center;verticalAlign=middle;resizable=0;points=[];autosize=1;strokeColor=none;fillColor=none;" parent="1" vertex="1">
          <mxGeometry x="-413" y="1880" width="50" height="40" as="geometry" />
        </mxCell>
        <mxCell id="4dAgeHiMnEhilsa8S1O4-73" value="&lt;font style=&quot;font-size: 18px;&quot;&gt;1:1&lt;/font&gt;" style="text;html=1;align=center;verticalAlign=middle;resizable=0;points=[];autosize=1;strokeColor=none;fillColor=none;" parent="1" vertex="1">
          <mxGeometry x="-250" y="1880" width="50" height="40" as="geometry" />
        </mxCell>
        <mxCell id="4dAgeHiMnEhilsa8S1O4-74" value="&lt;font style=&quot;font-size: 18px;&quot;&gt;1:1&lt;/font&gt;" style="text;html=1;align=center;verticalAlign=middle;resizable=0;points=[];autosize=1;strokeColor=none;fillColor=none;" parent="1" vertex="1">
          <mxGeometry x="-80" y="1880" width="50" height="40" as="geometry" />
        </mxCell>
        <mxCell id="4dAgeHiMnEhilsa8S1O4-75" value="&lt;font style=&quot;font-size: 18px;&quot;&gt;1:2&lt;/font&gt;" style="text;html=1;align=center;verticalAlign=middle;resizable=0;points=[];autosize=1;strokeColor=none;fillColor=none;" parent="1" vertex="1">
          <mxGeometry x="110" y="1880" width="50" height="40" as="geometry" />
        </mxCell>
        <mxCell id="4dAgeHiMnEhilsa8S1O4-76" value="&lt;font style=&quot;font-size: 18px;&quot;&gt;1:1&lt;/font&gt;" style="text;html=1;align=center;verticalAlign=middle;resizable=0;points=[];autosize=1;strokeColor=none;fillColor=none;" parent="1" vertex="1">
          <mxGeometry x="300" y="1880" width="50" height="40" as="geometry" />
        </mxCell>
        <mxCell id="4dAgeHiMnEhilsa8S1O4-77" value="&lt;font style=&quot;font-size: 18px;&quot;&gt;1:1&lt;/font&gt;" style="text;html=1;align=center;verticalAlign=middle;resizable=0;points=[];autosize=1;strokeColor=none;fillColor=none;" parent="1" vertex="1">
          <mxGeometry x="480" y="1880" width="50" height="40" as="geometry" />
        </mxCell>
        <mxCell id="y1DaqJBjW_A20msB0_ma-10" style="edgeStyle=orthogonalEdgeStyle;rounded=0;orthogonalLoop=1;jettySize=auto;html=1;exitX=0.5;exitY=1;exitDx=0;exitDy=0;entryX=0.5;entryY=0;entryDx=0;entryDy=0;" parent="1" source="y1DaqJBjW_A20msB0_ma-1" target="y1DaqJBjW_A20msB0_ma-8" edge="1">
          <mxGeometry relative="1" as="geometry" />
        </mxCell>
        <mxCell id="y1DaqJBjW_A20msB0_ma-1" value="MOP&lt;span style=&quot;background-color: initial;&quot;&gt;-BFF&lt;/span&gt;" style="rounded=1;whiteSpace=wrap;html=1;fillColor=#60a917;strokeColor=#2D7600;fontColor=#ffffff;" parent="1" vertex="1">
          <mxGeometry x="1909" y="1760" width="120" height="60" as="geometry" />
        </mxCell>
        <mxCell id="y1DaqJBjW_A20msB0_ma-2" style="edgeStyle=orthogonalEdgeStyle;rounded=0;orthogonalLoop=1;jettySize=auto;html=1;exitX=0.5;exitY=1;exitDx=0;exitDy=0;" parent="1" source="y1DaqJBjW_A20msB0_ma-3" target="y1DaqJBjW_A20msB0_ma-1" edge="1">
          <mxGeometry relative="1" as="geometry" />
        </mxCell>
        <mxCell id="y1DaqJBjW_A20msB0_ma-3" value="KONG" style="rounded=1;whiteSpace=wrap;html=1;fillColor=#dae8fc;strokeColor=#6c8ebf;" parent="1" vertex="1">
          <mxGeometry x="1909" y="1610" width="120" height="60" as="geometry" />
        </mxCell>
        <mxCell id="y1DaqJBjW_A20msB0_ma-4" value="" style="edgeStyle=orthogonalEdgeStyle;rounded=0;orthogonalLoop=1;jettySize=auto;html=1;" parent="1" source="y1DaqJBjW_A20msB0_ma-5" target="y1DaqJBjW_A20msB0_ma-3" edge="1">
          <mxGeometry relative="1" as="geometry" />
        </mxCell>
        <mxCell id="y1DaqJBjW_A20msB0_ma-5" value="APP" style="rounded=1;whiteSpace=wrap;html=1;fillColor=#f5f5f5;strokeColor=#666666;fontColor=#333333;" parent="1" vertex="1">
          <mxGeometry x="1909" y="1510" width="120" height="60" as="geometry" />
        </mxCell>
        <mxCell id="y1DaqJBjW_A20msB0_ma-8" value="结算" style="rounded=1;whiteSpace=wrap;html=1;fillColor=#60a917;strokeColor=#2D7600;fontColor=#ffffff;" parent="1" vertex="1">
          <mxGeometry x="1909" y="1930" width="120" height="60" as="geometry" />
        </mxCell>
        <mxCell id="y1DaqJBjW_A20msB0_ma-12" value="&lt;font style=&quot;font-size: 36px;&quot;&gt;接口视角&lt;/font&gt;" style="text;html=1;align=center;verticalAlign=middle;resizable=0;points=[];autosize=1;strokeColor=none;fillColor=none;" parent="1" vertex="1">
          <mxGeometry x="-700" y="2150" width="170" height="60" as="geometry" />
        </mxCell>
        <mxCell id="y1DaqJBjW_A20msB0_ma-13" style="edgeStyle=orthogonalEdgeStyle;rounded=0;orthogonalLoop=1;jettySize=auto;html=1;exitX=1;exitY=0.5;exitDx=0;exitDy=0;entryX=0;entryY=0.5;entryDx=0;entryDy=0;" parent="1" source="zOoS4C8m49oKL8yH7Izg-13" target="aZVJwk_nMkxhaGKlptH1-16" edge="1">
          <mxGeometry relative="1" as="geometry">
            <mxPoint x="-256" y="3355" as="targetPoint" />
            <mxPoint x="-429" y="3265" as="sourcePoint" />
          </mxGeometry>
        </mxCell>
        <mxCell id="zOoS4C8m49oKL8yH7Izg-6" value="1:1" style="edgeLabel;html=1;align=center;verticalAlign=middle;resizable=0;points=[];fontFamily=Helvetica;fontSize=20;fontColor=default;labelBackgroundColor=default;fillColor=none;gradientColor=none;" parent="y1DaqJBjW_A20msB0_ma-13" vertex="1" connectable="0">
          <mxGeometry x="0.6696" y="2" relative="1" as="geometry">
            <mxPoint y="-13" as="offset" />
          </mxGeometry>
        </mxCell>
        <mxCell id="y1DaqJBjW_A20msB0_ma-14" style="edgeStyle=orthogonalEdgeStyle;rounded=0;orthogonalLoop=1;jettySize=auto;html=1;exitX=1;exitY=0.5;exitDx=0;exitDy=0;entryX=0;entryY=0.5;entryDx=0;entryDy=0;" parent="1" source="zOoS4C8m49oKL8yH7Izg-13" target="aZVJwk_nMkxhaGKlptH1-7" edge="1">
          <mxGeometry relative="1" as="geometry">
            <mxPoint x="-332" y="2955" as="targetPoint" />
            <Array as="points" />
            <mxPoint x="-429" y="3265" as="sourcePoint" />
          </mxGeometry>
        </mxCell>
        <mxCell id="zOoS4C8m49oKL8yH7Izg-4" value="1:2" style="edgeLabel;html=1;align=center;verticalAlign=middle;resizable=0;points=[];fontFamily=Helvetica;fontSize=20;fontColor=default;labelBackgroundColor=default;fillColor=none;gradientColor=none;" parent="y1DaqJBjW_A20msB0_ma-14" vertex="1" connectable="0">
          <mxGeometry x="0.8729" y="9" relative="1" as="geometry">
            <mxPoint x="33" y="-17" as="offset" />
          </mxGeometry>
        </mxCell>
        <mxCell id="y1DaqJBjW_A20msB0_ma-15" style="edgeStyle=orthogonalEdgeStyle;rounded=0;orthogonalLoop=1;jettySize=auto;html=1;exitX=1;exitY=0.5;exitDx=0;exitDy=0;entryX=0;entryY=0.5;entryDx=0;entryDy=0;" parent="1" source="zOoS4C8m49oKL8yH7Izg-13" target="aZVJwk_nMkxhaGKlptH1-15" edge="1">
          <mxGeometry relative="1" as="geometry">
            <mxPoint x="-429" y="3265" as="sourcePoint" />
          </mxGeometry>
        </mxCell>
        <mxCell id="zOoS4C8m49oKL8yH7Izg-5" value="1:6" style="edgeLabel;html=1;align=center;verticalAlign=middle;resizable=0;points=[];fontFamily=Helvetica;fontSize=20;fontColor=default;labelBackgroundColor=default;fillColor=none;gradientColor=none;" parent="y1DaqJBjW_A20msB0_ma-15" vertex="1" connectable="0">
          <mxGeometry x="0.8518" y="-5" relative="1" as="geometry">
            <mxPoint y="-19" as="offset" />
          </mxGeometry>
        </mxCell>
        <mxCell id="y1DaqJBjW_A20msB0_ma-16" style="edgeStyle=orthogonalEdgeStyle;rounded=0;orthogonalLoop=1;jettySize=auto;html=1;exitX=1;exitY=0.5;exitDx=0;exitDy=0;entryX=0;entryY=0.5;entryDx=0;entryDy=0;" parent="1" source="zOoS4C8m49oKL8yH7Izg-13" target="aZVJwk_nMkxhaGKlptH1-10" edge="1">
          <mxGeometry relative="1" as="geometry">
            <mxPoint x="-332" y="2815" as="targetPoint" />
            <mxPoint x="-429" y="3265" as="sourcePoint" />
          </mxGeometry>
        </mxCell>
        <mxCell id="zOoS4C8m49oKL8yH7Izg-3" value="&lt;font style=&quot;font-size: 20px;&quot;&gt;1:2&lt;/font&gt;" style="edgeLabel;html=1;align=center;verticalAlign=middle;resizable=0;points=[];" parent="y1DaqJBjW_A20msB0_ma-16" vertex="1" connectable="0">
          <mxGeometry x="0.8897" y="-11" relative="1" as="geometry">
            <mxPoint x="12" y="-22" as="offset" />
          </mxGeometry>
        </mxCell>
        <mxCell id="y1DaqJBjW_A20msB0_ma-17" style="edgeStyle=orthogonalEdgeStyle;rounded=0;orthogonalLoop=1;jettySize=auto;html=1;exitX=1;exitY=0.5;exitDx=0;exitDy=0;entryX=0;entryY=0.5;entryDx=0;entryDy=0;" parent="1" source="zOoS4C8m49oKL8yH7Izg-13" target="aZVJwk_nMkxhaGKlptH1-17" edge="1">
          <mxGeometry relative="1" as="geometry">
            <mxPoint x="-429" y="3265" as="sourcePoint" />
          </mxGeometry>
        </mxCell>
        <mxCell id="zOoS4C8m49oKL8yH7Izg-7" value="&lt;font style=&quot;font-size: 20px;&quot;&gt;1:1&lt;/font&gt;" style="edgeLabel;html=1;align=center;verticalAlign=middle;resizable=0;points=[];fontFamily=Helvetica;fontSize=11;fontColor=default;labelBackgroundColor=default;fillColor=none;gradientColor=none;" parent="y1DaqJBjW_A20msB0_ma-17" vertex="1" connectable="0">
          <mxGeometry x="0.6843" y="-2" relative="1" as="geometry">
            <mxPoint x="-1" y="-16" as="offset" />
          </mxGeometry>
        </mxCell>
        <mxCell id="y1DaqJBjW_A20msB0_ma-18" style="edgeStyle=orthogonalEdgeStyle;rounded=0;orthogonalLoop=1;jettySize=auto;html=1;exitX=1;exitY=0.5;exitDx=0;exitDy=0;entryX=0;entryY=0.5;entryDx=0;entryDy=0;" parent="1" source="zOoS4C8m49oKL8yH7Izg-13" target="aZVJwk_nMkxhaGKlptH1-18" edge="1">
          <mxGeometry relative="1" as="geometry">
            <mxPoint x="-429" y="3265" as="sourcePoint" />
          </mxGeometry>
        </mxCell>
        <mxCell id="zOoS4C8m49oKL8yH7Izg-8" value="&lt;font style=&quot;font-size: 20px;&quot;&gt;1:2&lt;/font&gt;" style="edgeLabel;html=1;align=center;verticalAlign=middle;resizable=0;points=[];fontFamily=Helvetica;fontSize=11;fontColor=default;labelBackgroundColor=default;fillColor=none;gradientColor=none;" parent="y1DaqJBjW_A20msB0_ma-18" vertex="1" connectable="0">
          <mxGeometry x="0.8239" y="9" relative="1" as="geometry">
            <mxPoint x="1" y="-6" as="offset" />
          </mxGeometry>
        </mxCell>
        <mxCell id="y1DaqJBjW_A20msB0_ma-19" style="edgeStyle=orthogonalEdgeStyle;rounded=0;orthogonalLoop=1;jettySize=auto;html=1;exitX=1;exitY=0.5;exitDx=0;exitDy=0;entryX=0;entryY=0.5;entryDx=0;entryDy=0;" parent="1" source="zOoS4C8m49oKL8yH7Izg-13" target="aZVJwk_nMkxhaGKlptH1-21" edge="1">
          <mxGeometry relative="1" as="geometry">
            <mxPoint x="-429" y="3265" as="sourcePoint" />
          </mxGeometry>
        </mxCell>
        <mxCell id="zOoS4C8m49oKL8yH7Izg-9" value="&lt;font style=&quot;font-size: 20px;&quot;&gt;1:1&lt;/font&gt;" style="edgeLabel;html=1;align=center;verticalAlign=middle;resizable=0;points=[];fontFamily=Helvetica;fontSize=11;fontColor=default;labelBackgroundColor=default;fillColor=none;gradientColor=none;" parent="y1DaqJBjW_A20msB0_ma-19" vertex="1" connectable="0">
          <mxGeometry x="0.8806" y="1" relative="1" as="geometry">
            <mxPoint y="-14" as="offset" />
          </mxGeometry>
        </mxCell>
        <mxCell id="aZVJwk_nMkxhaGKlptH1-39" style="edgeStyle=orthogonalEdgeStyle;rounded=0;orthogonalLoop=1;jettySize=auto;html=1;entryX=0;entryY=0.5;entryDx=0;entryDy=0;exitX=1;exitY=0.5;exitDx=0;exitDy=0;" parent="1" source="zOoS4C8m49oKL8yH7Izg-13" target="aZVJwk_nMkxhaGKlptH1-36" edge="1">
          <mxGeometry relative="1" as="geometry">
            <mxPoint x="-429" y="3265" as="sourcePoint" />
          </mxGeometry>
        </mxCell>
        <mxCell id="zOoS4C8m49oKL8yH7Izg-10" value="&lt;font style=&quot;font-size: 20px;&quot;&gt;1:1&lt;/font&gt;" style="edgeLabel;html=1;align=center;verticalAlign=middle;resizable=0;points=[];fontFamily=Helvetica;fontSize=11;fontColor=default;labelBackgroundColor=default;fillColor=none;gradientColor=none;" parent="aZVJwk_nMkxhaGKlptH1-39" vertex="1" connectable="0">
          <mxGeometry x="0.9186" y="11" relative="1" as="geometry">
            <mxPoint y="-4" as="offset" />
          </mxGeometry>
        </mxCell>
        <mxCell id="aZVJwk_nMkxhaGKlptH1-74" style="edgeStyle=orthogonalEdgeStyle;rounded=0;orthogonalLoop=1;jettySize=auto;html=1;entryX=0;entryY=0.5;entryDx=0;entryDy=0;exitX=1;exitY=0.5;exitDx=0;exitDy=0;" parent="1" source="zOoS4C8m49oKL8yH7Izg-13" target="aZVJwk_nMkxhaGKlptH1-52" edge="1">
          <mxGeometry relative="1" as="geometry">
            <mxPoint x="-429" y="3265" as="sourcePoint" />
          </mxGeometry>
        </mxCell>
        <mxCell id="zOoS4C8m49oKL8yH7Izg-11" value="&lt;font style=&quot;font-size: 20px;&quot;&gt;1:1&lt;/font&gt;" style="edgeLabel;html=1;align=center;verticalAlign=middle;resizable=0;points=[];fontFamily=Helvetica;fontSize=11;fontColor=default;labelBackgroundColor=default;fillColor=none;gradientColor=none;" parent="aZVJwk_nMkxhaGKlptH1-74" vertex="1" connectable="0">
          <mxGeometry x="0.9172" y="6" relative="1" as="geometry">
            <mxPoint x="4" y="-8" as="offset" />
          </mxGeometry>
        </mxCell>
        <mxCell id="aZVJwk_nMkxhaGKlptH1-75" style="edgeStyle=orthogonalEdgeStyle;rounded=0;orthogonalLoop=1;jettySize=auto;html=1;entryX=0;entryY=0.5;entryDx=0;entryDy=0;exitX=1;exitY=0.5;exitDx=0;exitDy=0;" parent="1" source="zOoS4C8m49oKL8yH7Izg-13" target="aZVJwk_nMkxhaGKlptH1-53" edge="1">
          <mxGeometry relative="1" as="geometry">
            <mxPoint x="-429" y="3265" as="sourcePoint" />
          </mxGeometry>
        </mxCell>
        <mxCell id="zOoS4C8m49oKL8yH7Izg-12" value="&lt;font style=&quot;font-size: 20px;&quot;&gt;1:1&lt;/font&gt;" style="edgeLabel;html=1;align=center;verticalAlign=middle;resizable=0;points=[];fontFamily=Helvetica;fontSize=11;fontColor=default;labelBackgroundColor=default;fillColor=none;gradientColor=none;" parent="aZVJwk_nMkxhaGKlptH1-75" vertex="1" connectable="0">
          <mxGeometry x="0.9336" y="-3" relative="1" as="geometry">
            <mxPoint y="-17" as="offset" />
          </mxGeometry>
        </mxCell>
        <mxCell id="y1DaqJBjW_A20msB0_ma-32" value="&lt;font style=&quot;font-size: 18px;&quot;&gt;/api/rule/v1/products/srkit&lt;/font&gt;" style="text;html=1;align=center;verticalAlign=middle;resizable=0;points=[];autosize=1;strokeColor=none;fillColor=none;" parent="1" vertex="1">
          <mxGeometry x="-169.63" y="2355" width="220" height="40" as="geometry" />
        </mxCell>
        <mxCell id="y1DaqJBjW_A20msB0_ma-33" value="&lt;font style=&quot;font-size: 18px;&quot;&gt;/orchestration/mop/v3/order/review&lt;/font&gt;" style="text;html=1;align=center;verticalAlign=middle;resizable=0;points=[];autosize=1;strokeColor=none;fillColor=none;" parent="1" vertex="1">
          <mxGeometry x="-170.13" y="2480" width="300" height="40" as="geometry" />
        </mxCell>
        <mxCell id="aZVJwk_nMkxhaGKlptH1-9" value="" style="edgeStyle=entityRelationEdgeStyle;rounded=0;orthogonalLoop=1;jettySize=auto;html=1;startArrow=none;endArrow=none;segment=10;curved=1;sourcePerimeterSpacing=0;targetPerimeterSpacing=0;" parent="1" source="aZVJwk_nMkxhaGKlptH1-7" target="y1DaqJBjW_A20msB0_ma-33" edge="1">
          <mxGeometry relative="1" as="geometry" />
        </mxCell>
        <mxCell id="aZVJwk_nMkxhaGKlptH1-28" value="" style="edgeStyle=entityRelationEdgeStyle;rounded=0;orthogonalLoop=1;jettySize=auto;html=1;startArrow=none;endArrow=none;segment=10;curved=1;sourcePerimeterSpacing=0;targetPerimeterSpacing=0;entryX=-0.008;entryY=0.5;entryDx=0;entryDy=0;entryPerimeter=0;" parent="1" source="aZVJwk_nMkxhaGKlptH1-7" target="aZVJwk_nMkxhaGKlptH1-29" edge="1">
          <mxGeometry relative="1" as="geometry">
            <Array as="points">
              <mxPoint x="-126.63" y="2775" />
              <mxPoint x="-146.63" y="2755" />
            </Array>
          </mxGeometry>
        </mxCell>
        <mxCell id="aZVJwk_nMkxhaGKlptH1-7" value="OMS" style="whiteSpace=wrap;html=1;rounded=1;arcSize=50;align=center;verticalAlign=middle;strokeWidth=1;autosize=0;spacing=4;treeFolding=1;treeMoving=1;newEdgeStyle={&quot;edgeStyle&quot;:&quot;entityRelationEdgeStyle&quot;,&quot;startArrow&quot;:&quot;none&quot;,&quot;endArrow&quot;:&quot;none&quot;,&quot;segment&quot;:10,&quot;curved&quot;:1,&quot;sourcePerimeterSpacing&quot;:0,&quot;targetPerimeterSpacing&quot;:0};fillColor=#e3c800;" parent="1" vertex="1">
          <mxGeometry x="-333.13" y="2510" width="100" height="60" as="geometry" />
        </mxCell>
        <mxCell id="aZVJwk_nMkxhaGKlptH1-14" value="" style="edgeStyle=entityRelationEdgeStyle;rounded=0;orthogonalLoop=1;jettySize=auto;html=1;startArrow=none;endArrow=none;segment=10;curved=1;sourcePerimeterSpacing=0;targetPerimeterSpacing=0;" parent="1" source="aZVJwk_nMkxhaGKlptH1-10" target="y1DaqJBjW_A20msB0_ma-32" edge="1">
          <mxGeometry relative="1" as="geometry" />
        </mxCell>
        <mxCell id="aZVJwk_nMkxhaGKlptH1-25" value="" style="edgeStyle=entityRelationEdgeStyle;rounded=0;orthogonalLoop=1;jettySize=auto;html=1;startArrow=none;endArrow=none;segment=10;curved=1;sourcePerimeterSpacing=0;targetPerimeterSpacing=0;entryX=0;entryY=0.5;entryDx=0;entryDy=0;" parent="1" source="aZVJwk_nMkxhaGKlptH1-10" target="aZVJwk_nMkxhaGKlptH1-26" edge="1">
          <mxGeometry relative="1" as="geometry">
            <mxPoint x="-76.63000000000001" y="2435" as="targetPoint" />
          </mxGeometry>
        </mxCell>
        <mxCell id="aZVJwk_nMkxhaGKlptH1-10" value="PC" style="whiteSpace=wrap;html=1;rounded=1;arcSize=50;align=center;verticalAlign=middle;strokeWidth=1;autosize=0;spacing=4;treeFolding=1;treeMoving=1;newEdgeStyle={&quot;edgeStyle&quot;:&quot;entityRelationEdgeStyle&quot;,&quot;startArrow&quot;:&quot;none&quot;,&quot;endArrow&quot;:&quot;none&quot;,&quot;segment&quot;:10,&quot;curved&quot;:1,&quot;sourcePerimeterSpacing&quot;:0,&quot;targetPerimeterSpacing&quot;:0};fillColor=#e51400;" parent="1" vertex="1">
          <mxGeometry x="-332.63" y="2335" width="100" height="60" as="geometry" />
        </mxCell>
        <mxCell id="aZVJwk_nMkxhaGKlptH1-58" value="" style="edgeStyle=entityRelationEdgeStyle;rounded=0;orthogonalLoop=1;jettySize=auto;html=1;startArrow=none;endArrow=none;segment=10;curved=1;sourcePerimeterSpacing=0;targetPerimeterSpacing=0;entryX=0;entryY=0.5;entryDx=0;entryDy=0;" parent="1" source="aZVJwk_nMkxhaGKlptH1-15" target="-AG1-4Ak4wr8HE6v8jgh-5" edge="1">
          <mxGeometry relative="1" as="geometry">
            <mxPoint x="-170.25" y="2830" as="targetPoint" />
          </mxGeometry>
        </mxCell>
        <mxCell id="aZVJwk_nMkxhaGKlptH1-60" style="edgeStyle=entityRelationEdgeStyle;rounded=0;orthogonalLoop=1;jettySize=auto;html=1;startArrow=none;endArrow=none;segment=10;curved=1;sourcePerimeterSpacing=0;targetPerimeterSpacing=0;entryX=0;entryY=0.25;entryDx=0;entryDy=0;" parent="1" source="aZVJwk_nMkxhaGKlptH1-15" target="-AG1-4Ak4wr8HE6v8jgh-1" edge="1">
          <mxGeometry relative="1" as="geometry">
            <Array as="points">
              <mxPoint x="-160.25" y="2740" />
            </Array>
            <mxPoint x="-170.25" y="2710" as="targetPoint" />
          </mxGeometry>
        </mxCell>
        <mxCell id="aZVJwk_nMkxhaGKlptH1-61" style="edgeStyle=entityRelationEdgeStyle;rounded=0;orthogonalLoop=1;jettySize=auto;html=1;startArrow=none;endArrow=none;segment=10;curved=1;sourcePerimeterSpacing=0;targetPerimeterSpacing=0;entryX=0;entryY=0.5;entryDx=0;entryDy=0;" parent="1" source="aZVJwk_nMkxhaGKlptH1-15" target="-AG1-4Ak4wr8HE6v8jgh-2" edge="1">
          <mxGeometry relative="1" as="geometry">
            <mxPoint x="-170.25" y="2740" as="targetPoint" />
          </mxGeometry>
        </mxCell>
        <mxCell id="eDPh15qIm-yFBLzmt0Jg-34" style="edgeStyle=entityRelationEdgeStyle;rounded=0;orthogonalLoop=1;jettySize=auto;html=1;startArrow=none;endArrow=none;segment=10;curved=1;sourcePerimeterSpacing=0;targetPerimeterSpacing=0;entryX=0;entryY=0.5;entryDx=0;entryDy=0;" edge="1" parent="1" source="aZVJwk_nMkxhaGKlptH1-15" target="-AG1-4Ak4wr8HE6v8jgh-6">
          <mxGeometry relative="1" as="geometry" />
        </mxCell>
        <mxCell id="aZVJwk_nMkxhaGKlptH1-15" value="&lt;div&gt;Provision&lt;br&gt;&lt;/div&gt;" style="whiteSpace=wrap;html=1;rounded=1;arcSize=50;align=center;verticalAlign=middle;strokeWidth=1;autosize=0;spacing=4;treeFolding=1;treeMoving=1;newEdgeStyle={&quot;edgeStyle&quot;:&quot;entityRelationEdgeStyle&quot;,&quot;startArrow&quot;:&quot;none&quot;,&quot;endArrow&quot;:&quot;none&quot;,&quot;segment&quot;:10,&quot;curved&quot;:1,&quot;sourcePerimeterSpacing&quot;:0,&quot;targetPerimeterSpacing&quot;:0};fillColor=#fff2cc;" parent="1" vertex="1">
          <mxGeometry x="-333.25" y="2740" width="100" height="60" as="geometry" />
        </mxCell>
        <mxCell id="aZVJwk_nMkxhaGKlptH1-65" value="" style="edgeStyle=entityRelationEdgeStyle;rounded=0;orthogonalLoop=1;jettySize=auto;html=1;startArrow=none;endArrow=none;segment=10;curved=1;sourcePerimeterSpacing=0;targetPerimeterSpacing=0;" parent="1" source="aZVJwk_nMkxhaGKlptH1-16" target="aZVJwk_nMkxhaGKlptH1-42" edge="1">
          <mxGeometry relative="1" as="geometry" />
        </mxCell>
        <mxCell id="aZVJwk_nMkxhaGKlptH1-16" value="&lt;div&gt;StarEngine&lt;br&gt;&lt;/div&gt;" style="whiteSpace=wrap;html=1;rounded=1;arcSize=50;align=center;verticalAlign=middle;strokeWidth=1;autosize=0;spacing=4;treeFolding=1;treeMoving=1;newEdgeStyle={&quot;edgeStyle&quot;:&quot;entityRelationEdgeStyle&quot;,&quot;startArrow&quot;:&quot;none&quot;,&quot;endArrow&quot;:&quot;none&quot;,&quot;segment&quot;:10,&quot;curved&quot;:1,&quot;sourcePerimeterSpacing&quot;:0,&quot;targetPerimeterSpacing&quot;:0};fillColor=#b0e3e6;" parent="1" vertex="1">
          <mxGeometry x="-332" y="3160" width="100" height="60" as="geometry" />
        </mxCell>
        <mxCell id="aZVJwk_nMkxhaGKlptH1-66" value="" style="edgeStyle=entityRelationEdgeStyle;rounded=0;orthogonalLoop=1;jettySize=auto;html=1;startArrow=none;endArrow=none;segment=10;curved=1;sourcePerimeterSpacing=0;targetPerimeterSpacing=0;" parent="1" source="aZVJwk_nMkxhaGKlptH1-17" target="aZVJwk_nMkxhaGKlptH1-41" edge="1">
          <mxGeometry relative="1" as="geometry" />
        </mxCell>
        <mxCell id="aZVJwk_nMkxhaGKlptH1-17" value="&lt;div&gt;CAC&lt;br&gt;&lt;/div&gt;" style="whiteSpace=wrap;html=1;rounded=1;arcSize=50;align=center;verticalAlign=middle;strokeWidth=1;autosize=0;spacing=4;treeFolding=1;treeMoving=1;newEdgeStyle={&quot;edgeStyle&quot;:&quot;entityRelationEdgeStyle&quot;,&quot;startArrow&quot;:&quot;none&quot;,&quot;endArrow&quot;:&quot;none&quot;,&quot;segment&quot;:10,&quot;curved&quot;:1,&quot;sourcePerimeterSpacing&quot;:0,&quot;targetPerimeterSpacing&quot;:0};fillColor=#f8cecc;" parent="1" vertex="1">
          <mxGeometry x="-332" y="3318" width="100" height="60" as="geometry" />
        </mxCell>
        <mxCell id="aZVJwk_nMkxhaGKlptH1-35" value="" style="edgeStyle=entityRelationEdgeStyle;rounded=0;orthogonalLoop=1;jettySize=auto;html=1;startArrow=none;endArrow=none;segment=10;curved=1;sourcePerimeterSpacing=0;targetPerimeterSpacing=0;" parent="1" source="aZVJwk_nMkxhaGKlptH1-18" target="aZVJwk_nMkxhaGKlptH1-34" edge="1">
          <mxGeometry relative="1" as="geometry" />
        </mxCell>
        <mxCell id="aZVJwk_nMkxhaGKlptH1-67" style="edgeStyle=entityRelationEdgeStyle;rounded=0;orthogonalLoop=1;jettySize=auto;html=1;startArrow=none;endArrow=none;segment=10;curved=1;sourcePerimeterSpacing=0;targetPerimeterSpacing=0;" parent="1" source="aZVJwk_nMkxhaGKlptH1-18" target="aZVJwk_nMkxhaGKlptH1-45" edge="1">
          <mxGeometry relative="1" as="geometry" />
        </mxCell>
        <mxCell id="aZVJwk_nMkxhaGKlptH1-18" value="&lt;div&gt;CC&lt;/div&gt;" style="whiteSpace=wrap;html=1;rounded=1;arcSize=50;align=center;verticalAlign=middle;strokeWidth=1;autosize=0;spacing=4;treeFolding=1;treeMoving=1;newEdgeStyle={&quot;edgeStyle&quot;:&quot;entityRelationEdgeStyle&quot;,&quot;startArrow&quot;:&quot;none&quot;,&quot;endArrow&quot;:&quot;none&quot;,&quot;segment&quot;:10,&quot;curved&quot;:1,&quot;sourcePerimeterSpacing&quot;:0,&quot;targetPerimeterSpacing&quot;:0};fillColor=#6a00ff;" parent="1" vertex="1">
          <mxGeometry x="-332" y="3475" width="100" height="60" as="geometry" />
        </mxCell>
        <mxCell id="eDPh15qIm-yFBLzmt0Jg-6" style="edgeStyle=entityRelationEdgeStyle;rounded=0;orthogonalLoop=1;jettySize=auto;html=1;startArrow=none;endArrow=none;segment=10;curved=1;sourcePerimeterSpacing=0;targetPerimeterSpacing=0;exitX=1;exitY=0.5;exitDx=0;exitDy=0;" edge="1" parent="1" source="aZVJwk_nMkxhaGKlptH1-19" target="vJ7eMmziaktAMfShHW13-9">
          <mxGeometry relative="1" as="geometry" />
        </mxCell>
        <mxCell id="eDPh15qIm-yFBLzmt0Jg-8" style="edgeStyle=entityRelationEdgeStyle;rounded=0;orthogonalLoop=1;jettySize=auto;html=1;startArrow=none;endArrow=none;segment=10;curved=1;sourcePerimeterSpacing=0;targetPerimeterSpacing=0;exitX=1;exitY=0.5;exitDx=0;exitDy=0;" edge="1" parent="1" source="aZVJwk_nMkxhaGKlptH1-19" target="vJ7eMmziaktAMfShHW13-8">
          <mxGeometry relative="1" as="geometry" />
        </mxCell>
        <mxCell id="aZVJwk_nMkxhaGKlptH1-19" value="UPP" style="whiteSpace=wrap;html=1;rounded=1;arcSize=50;align=center;verticalAlign=middle;strokeWidth=1;autosize=1;spacing=4;treeFolding=1;treeMoving=1;newEdgeStyle={&quot;edgeStyle&quot;:&quot;entityRelationEdgeStyle&quot;,&quot;startArrow&quot;:&quot;none&quot;,&quot;endArrow&quot;:&quot;none&quot;,&quot;segment&quot;:10,&quot;curved&quot;:1,&quot;sourcePerimeterSpacing&quot;:0,&quot;targetPerimeterSpacing&quot;:0};fillColor=#d0cee2;" parent="1" vertex="1">
          <mxGeometry x="-332" y="4265" width="100" height="60" as="geometry" />
        </mxCell>
        <mxCell id="aZVJwk_nMkxhaGKlptH1-68" value="" style="edgeStyle=entityRelationEdgeStyle;rounded=0;orthogonalLoop=1;jettySize=auto;html=1;startArrow=none;endArrow=none;segment=10;curved=1;sourcePerimeterSpacing=0;targetPerimeterSpacing=0;" parent="1" source="aZVJwk_nMkxhaGKlptH1-21" target="aZVJwk_nMkxhaGKlptH1-44" edge="1">
          <mxGeometry relative="1" as="geometry" />
        </mxCell>
        <mxCell id="aZVJwk_nMkxhaGKlptH1-21" value="&lt;div&gt;CRM Adapter&lt;/div&gt;" style="whiteSpace=wrap;html=1;rounded=1;arcSize=50;align=center;verticalAlign=middle;strokeWidth=1;autosize=0;spacing=4;treeFolding=1;treeMoving=1;newEdgeStyle={&quot;edgeStyle&quot;:&quot;entityRelationEdgeStyle&quot;,&quot;startArrow&quot;:&quot;none&quot;,&quot;endArrow&quot;:&quot;none&quot;,&quot;segment&quot;:10,&quot;curved&quot;:1,&quot;sourcePerimeterSpacing&quot;:0,&quot;targetPerimeterSpacing&quot;:0};fillColor=#76608a;" parent="1" vertex="1">
          <mxGeometry x="-332" y="3635" width="100" height="60" as="geometry" />
        </mxCell>
        <mxCell id="aZVJwk_nMkxhaGKlptH1-26" value="&lt;font style=&quot;font-size: 18px;&quot;&gt;/mop/product/store/tableware/poskey&lt;/font&gt;" style="text;html=1;align=center;verticalAlign=middle;whiteSpace=wrap;rounded=0;autosize=1;" parent="1" vertex="1">
          <mxGeometry x="-169.63" y="2300" width="320" height="40" as="geometry" />
        </mxCell>
        <mxCell id="aZVJwk_nMkxhaGKlptH1-29" value="&lt;font style=&quot;font-size: 18px;&quot;&gt;/orchestration/product/store/tableware/poskey&lt;/font&gt;" style="text;html=1;align=center;verticalAlign=middle;resizable=0;points=[];autosize=1;strokeColor=none;fillColor=none;" parent="1" vertex="1">
          <mxGeometry x="-170.13" y="2548" width="390" height="40" as="geometry" />
        </mxCell>
        <mxCell id="aZVJwk_nMkxhaGKlptH1-33" value="&lt;font style=&quot;font-size: 18px;&quot;&gt;/campaign-adapter/retain/rewards/received&lt;/font&gt;" style="text;html=1;align=center;verticalAlign=middle;resizable=0;points=[];autosize=1;strokeColor=none;fillColor=none;" parent="1" vertex="1">
          <mxGeometry x="-169" y="3785" width="370" height="40" as="geometry" />
        </mxCell>
        <mxCell id="aZVJwk_nMkxhaGKlptH1-34" value="&lt;font style=&quot;font-size: 18px;&quot;&gt;/preference/settings/${customer_id}&lt;/font&gt;" style="text;html=1;align=center;verticalAlign=middle;resizable=0;points=[];autosize=1;strokeColor=none;fillColor=none;" parent="1" vertex="1">
          <mxGeometry x="-169" y="3455" width="310" height="40" as="geometry" />
        </mxCell>
        <mxCell id="aZVJwk_nMkxhaGKlptH1-40" value="" style="edgeStyle=entityRelationEdgeStyle;rounded=0;orthogonalLoop=1;jettySize=auto;html=1;startArrow=none;endArrow=none;segment=10;curved=1;sourcePerimeterSpacing=0;targetPerimeterSpacing=0;" parent="1" source="aZVJwk_nMkxhaGKlptH1-36" target="aZVJwk_nMkxhaGKlptH1-33" edge="1">
          <mxGeometry relative="1" as="geometry" />
        </mxCell>
        <mxCell id="aZVJwk_nMkxhaGKlptH1-36" value="GS" style="whiteSpace=wrap;html=1;rounded=1;arcSize=50;align=center;verticalAlign=middle;strokeWidth=1;autosize=0;spacing=4;treeFolding=1;treeMoving=1;newEdgeStyle={&quot;edgeStyle&quot;:&quot;entityRelationEdgeStyle&quot;,&quot;startArrow&quot;:&quot;none&quot;,&quot;endArrow&quot;:&quot;none&quot;,&quot;segment&quot;:10,&quot;curved&quot;:1,&quot;sourcePerimeterSpacing&quot;:0,&quot;targetPerimeterSpacing&quot;:0};fillColor=#FF00FF;" parent="1" vertex="1">
          <mxGeometry x="-332" y="3775" width="100" height="60" as="geometry" />
        </mxCell>
        <mxCell id="aZVJwk_nMkxhaGKlptH1-41" value="&lt;font style=&quot;font-size: 18px;&quot;&gt;/asset-service/asset/v1/member/stars/balance&lt;/font&gt;" style="text;html=1;align=center;verticalAlign=middle;resizable=0;points=[];autosize=1;strokeColor=none;fillColor=none;" parent="1" vertex="1">
          <mxGeometry x="-169" y="3328" width="390" height="40" as="geometry" />
        </mxCell>
        <mxCell id="aZVJwk_nMkxhaGKlptH1-42" value="&lt;font style=&quot;font-size: 18px;&quot;&gt;/star/calculateStar&lt;/font&gt;" style="text;html=1;align=center;verticalAlign=middle;resizable=0;points=[];autosize=1;strokeColor=none;fillColor=none;" parent="1" vertex="1">
          <mxGeometry x="-169" y="3170" width="170" height="40" as="geometry" />
        </mxCell>
        <mxCell id="aZVJwk_nMkxhaGKlptH1-44" value="&lt;font style=&quot;font-size: 18px;&quot;&gt;/api/v2/customers/detail/simple&lt;/font&gt;" style="text;html=1;align=center;verticalAlign=middle;resizable=0;points=[];autosize=1;strokeColor=none;fillColor=none;" parent="1" vertex="1">
          <mxGeometry x="-169" y="3645" width="270" height="40" as="geometry" />
        </mxCell>
        <mxCell id="aZVJwk_nMkxhaGKlptH1-45" value="&lt;font style=&quot;font-size: 18px;&quot;&gt;/preference/settings/${customer_id}/${key}&lt;/font&gt;" style="text;html=1;align=center;verticalAlign=middle;resizable=0;points=[];autosize=1;strokeColor=none;fillColor=none;" parent="1" vertex="1">
          <mxGeometry x="-169" y="3525" width="360" height="40" as="geometry" />
        </mxCell>
        <mxCell id="aZVJwk_nMkxhaGKlptH1-48" value="&lt;font style=&quot;font-size: 18px;&quot;&gt;/api/v1/starbucks/recommend/rank&lt;/font&gt;" style="text;html=1;align=center;verticalAlign=middle;resizable=0;points=[];autosize=1;strokeColor=none;fillColor=none;" parent="1" vertex="1">
          <mxGeometry x="-169" y="4079" width="300" height="40" as="geometry" />
        </mxCell>
        <mxCell id="aZVJwk_nMkxhaGKlptH1-73" value="" style="edgeStyle=entityRelationEdgeStyle;rounded=0;orthogonalLoop=1;jettySize=auto;html=1;startArrow=none;endArrow=none;segment=10;curved=1;sourcePerimeterSpacing=0;targetPerimeterSpacing=0;" parent="1" source="aZVJwk_nMkxhaGKlptH1-52" edge="1">
          <mxGeometry relative="1" as="geometry">
            <mxPoint x="-169" y="3955" as="targetPoint" />
          </mxGeometry>
        </mxCell>
        <mxCell id="aZVJwk_nMkxhaGKlptH1-52" value="A/B Test" style="whiteSpace=wrap;html=1;rounded=1;arcSize=50;align=center;verticalAlign=middle;strokeWidth=1;autosize=0;spacing=4;treeFolding=1;treeMoving=1;newEdgeStyle={&quot;edgeStyle&quot;:&quot;entityRelationEdgeStyle&quot;,&quot;startArrow&quot;:&quot;none&quot;,&quot;endArrow&quot;:&quot;none&quot;,&quot;segment&quot;:10,&quot;curved&quot;:1,&quot;sourcePerimeterSpacing&quot;:0,&quot;targetPerimeterSpacing&quot;:0};fillColor=#33FF99;" parent="1" vertex="1">
          <mxGeometry x="-332" y="3926" width="100" height="60" as="geometry" />
        </mxCell>
        <mxCell id="aZVJwk_nMkxhaGKlptH1-72" value="" style="edgeStyle=entityRelationEdgeStyle;rounded=0;orthogonalLoop=1;jettySize=auto;html=1;startArrow=none;endArrow=none;segment=10;curved=1;sourcePerimeterSpacing=0;targetPerimeterSpacing=0;" parent="1" source="aZVJwk_nMkxhaGKlptH1-53" target="aZVJwk_nMkxhaGKlptH1-48" edge="1">
          <mxGeometry relative="1" as="geometry" />
        </mxCell>
        <mxCell id="aZVJwk_nMkxhaGKlptH1-53" value="RSA" style="whiteSpace=wrap;html=1;rounded=1;arcSize=50;align=center;verticalAlign=middle;strokeWidth=1;autosize=0;spacing=4;treeFolding=1;treeMoving=1;newEdgeStyle={&quot;edgeStyle&quot;:&quot;entityRelationEdgeStyle&quot;,&quot;startArrow&quot;:&quot;none&quot;,&quot;endArrow&quot;:&quot;none&quot;,&quot;segment&quot;:10,&quot;curved&quot;:1,&quot;sourcePerimeterSpacing&quot;:0,&quot;targetPerimeterSpacing&quot;:0};fillColor=#FFFF33;" parent="1" vertex="1">
          <mxGeometry x="-332" y="4069" width="100" height="60" as="geometry" />
        </mxCell>
        <mxCell id="aZVJwk_nMkxhaGKlptH1-62" style="edgeStyle=entityRelationEdgeStyle;rounded=0;orthogonalLoop=1;jettySize=auto;html=1;startArrow=none;endArrow=none;segment=10;curved=1;sourcePerimeterSpacing=0;targetPerimeterSpacing=0;" parent="1" source="aZVJwk_nMkxhaGKlptH1-15" target="-AG1-4Ak4wr8HE6v8jgh-3" edge="1">
          <mxGeometry relative="1" as="geometry">
            <mxPoint x="-173.44000000000005" y="2772.56" as="targetPoint" />
          </mxGeometry>
        </mxCell>
        <mxCell id="aZVJwk_nMkxhaGKlptH1-63" style="edgeStyle=entityRelationEdgeStyle;rounded=0;orthogonalLoop=1;jettySize=auto;html=1;startArrow=none;endArrow=none;segment=10;curved=1;sourcePerimeterSpacing=0;targetPerimeterSpacing=0;entryX=0;entryY=0.5;entryDx=0;entryDy=0;" parent="1" source="aZVJwk_nMkxhaGKlptH1-15" target="-AG1-4Ak4wr8HE6v8jgh-4" edge="1">
          <mxGeometry relative="1" as="geometry">
            <mxPoint x="-171.6300000000001" y="2803.3199999999997" as="targetPoint" />
          </mxGeometry>
        </mxCell>
        <mxCell id="aZVJwk_nMkxhaGKlptH1-77" value="&lt;font color=&quot;#000000&quot;&gt;GS&lt;/font&gt;" style="rounded=1;whiteSpace=wrap;html=1;fillColor=#ff00ff;strokeColor=#432D57;fontColor=#ffffff;" parent="1" vertex="1">
          <mxGeometry x="430" y="1940" width="120" height="60" as="geometry" />
        </mxCell>
        <mxCell id="aZVJwk_nMkxhaGKlptH1-78" value="&lt;font color=&quot;#000000&quot;&gt;A/B Test&lt;/font&gt;" style="rounded=1;whiteSpace=wrap;html=1;fillColor=#33ff99;strokeColor=#432D57;fontColor=#ffffff;" parent="1" vertex="1">
          <mxGeometry x="620" y="1940" width="120" height="60" as="geometry" />
        </mxCell>
        <mxCell id="aZVJwk_nMkxhaGKlptH1-79" value="&lt;font color=&quot;#000000&quot;&gt;RSA&lt;/font&gt;" style="rounded=1;whiteSpace=wrap;html=1;fillColor=#ffff33;strokeColor=#432D57;fontColor=#ffffff;" parent="1" vertex="1">
          <mxGeometry x="810" y="1940" width="120" height="60" as="geometry" />
        </mxCell>
        <mxCell id="zOoS4C8m49oKL8yH7Izg-13" value="MOP&lt;span style=&quot;background-color: initial;&quot;&gt;-BFF&lt;br&gt;&lt;/span&gt;&lt;span style=&quot;white-space-collapse: preserve; color: rgb(33, 33, 33); font-family: Inter, OpenSans, Helvetica, Arial, sans-serif; text-align: left; background-color: rgb(255, 255, 255);&quot;&gt;/mop/order/review/v5&lt;/span&gt;" style="whiteSpace=wrap;html=1;rounded=1;arcSize=50;align=center;verticalAlign=middle;strokeWidth=1;autosize=0;spacing=4;treeFolding=1;treeMoving=1;newEdgeStyle={&quot;edgeStyle&quot;:&quot;entityRelationEdgeStyle&quot;,&quot;startArrow&quot;:&quot;none&quot;,&quot;endArrow&quot;:&quot;none&quot;,&quot;segment&quot;:10,&quot;curved&quot;:1,&quot;sourcePerimeterSpacing&quot;:0,&quot;targetPerimeterSpacing&quot;:0};strokeColor=#2D7600;fontFamily=Helvetica;fontSize=12;fontColor=#ffffff;fillColor=#60a917;" parent="1" vertex="1">
          <mxGeometry x="-572" y="3475" width="120" height="60" as="geometry" />
        </mxCell>
        <mxCell id="eDPh15qIm-yFBLzmt0Jg-27" style="edgeStyle=orthogonalEdgeStyle;rounded=0;orthogonalLoop=1;jettySize=auto;html=1;exitX=1;exitY=0.5;exitDx=0;exitDy=0;entryX=0;entryY=0.5;entryDx=0;entryDy=0;" edge="1" parent="1" source="-AG1-4Ak4wr8HE6v8jgh-1" target="eDPh15qIm-yFBLzmt0Jg-25">
          <mxGeometry relative="1" as="geometry" />
        </mxCell>
        <mxCell id="-AG1-4Ak4wr8HE6v8jgh-1" value="&lt;span style=&quot;font-size: 18px; text-wrap: nowrap;&quot;&gt;/app-provision-api/default/app-config/${config_code}&lt;/span&gt;" style="whiteSpace=wrap;html=1;" parent="1" vertex="1">
          <mxGeometry x="-158.63" y="2600" width="521" height="30" as="geometry" />
        </mxCell>
        <mxCell id="eDPh15qIm-yFBLzmt0Jg-32" style="edgeStyle=orthogonalEdgeStyle;rounded=0;orthogonalLoop=1;jettySize=auto;html=1;entryX=0;entryY=0.5;entryDx=0;entryDy=0;" edge="1" parent="1" source="-AG1-4Ak4wr8HE6v8jgh-2" target="eDPh15qIm-yFBLzmt0Jg-30">
          <mxGeometry relative="1" as="geometry" />
        </mxCell>
        <mxCell id="eDPh15qIm-yFBLzmt0Jg-33" style="edgeStyle=orthogonalEdgeStyle;rounded=0;orthogonalLoop=1;jettySize=auto;html=1;exitX=1;exitY=0.5;exitDx=0;exitDy=0;" edge="1" parent="1" source="-AG1-4Ak4wr8HE6v8jgh-2" target="eDPh15qIm-yFBLzmt0Jg-31">
          <mxGeometry relative="1" as="geometry" />
        </mxCell>
        <mxCell id="-AG1-4Ak4wr8HE6v8jgh-2" value="&lt;span style=&quot;font-size: 18px; text-wrap: nowrap;&quot;&gt;/app-provision-api/default/custom-configs&lt;/span&gt;" style="whiteSpace=wrap;html=1;" parent="1" vertex="1">
          <mxGeometry x="-156.63" y="2715" width="519" height="30" as="geometry" />
        </mxCell>
        <mxCell id="eDPh15qIm-yFBLzmt0Jg-40" style="edgeStyle=orthogonalEdgeStyle;rounded=0;orthogonalLoop=1;jettySize=auto;html=1;exitX=1;exitY=0.5;exitDx=0;exitDy=0;entryX=0;entryY=0.5;entryDx=0;entryDy=0;" edge="1" parent="1" source="-AG1-4Ak4wr8HE6v8jgh-3" target="eDPh15qIm-yFBLzmt0Jg-38">
          <mxGeometry relative="1" as="geometry" />
        </mxCell>
        <mxCell id="eDPh15qIm-yFBLzmt0Jg-41" style="edgeStyle=orthogonalEdgeStyle;rounded=0;orthogonalLoop=1;jettySize=auto;html=1;exitX=1;exitY=0.5;exitDx=0;exitDy=0;" edge="1" parent="1" source="-AG1-4Ak4wr8HE6v8jgh-3" target="eDPh15qIm-yFBLzmt0Jg-39">
          <mxGeometry relative="1" as="geometry" />
        </mxCell>
        <mxCell id="-AG1-4Ak4wr8HE6v8jgh-3" value="&lt;span style=&quot;font-size: 18px; text-wrap: nowrap;&quot;&gt;/app-provision-api/default/combos&lt;/span&gt;" style="whiteSpace=wrap;html=1;" parent="1" vertex="1">
          <mxGeometry x="-156.63" y="2840" width="516.63" height="30" as="geometry" />
        </mxCell>
        <mxCell id="-AG1-4Ak4wr8HE6v8jgh-4" value="&lt;span style=&quot;font-size: 18px; text-wrap: nowrap;&quot;&gt;/app-provision-api/default/revamp-coupon-config/batch&lt;/span&gt;" style="whiteSpace=wrap;html=1;" parent="1" vertex="1">
          <mxGeometry x="-156" y="2943" width="516" height="30" as="geometry" />
        </mxCell>
        <mxCell id="eDPh15qIm-yFBLzmt0Jg-48" style="edgeStyle=orthogonalEdgeStyle;rounded=0;orthogonalLoop=1;jettySize=auto;html=1;exitX=1;exitY=0.5;exitDx=0;exitDy=0;entryX=0;entryY=0.5;entryDx=0;entryDy=0;" edge="1" parent="1" source="-AG1-4Ak4wr8HE6v8jgh-5" target="eDPh15qIm-yFBLzmt0Jg-46">
          <mxGeometry relative="1" as="geometry" />
        </mxCell>
        <mxCell id="-AG1-4Ak4wr8HE6v8jgh-5" value="&lt;span style=&quot;font-size: 18px; text-wrap: nowrap;&quot;&gt;/app-provision-api/filter/wx-promotion-bar&lt;/span&gt;" style="whiteSpace=wrap;html=1;" parent="1" vertex="1">
          <mxGeometry x="-156.63" y="3040" width="516.63" height="30" as="geometry" />
        </mxCell>
        <mxCell id="-AG1-4Ak4wr8HE6v8jgh-6" value="&lt;span style=&quot;text-wrap: nowrap;&quot;&gt;&lt;font style=&quot;font-size: 14px;&quot;&gt;/app-provision-api/default/${ModelCode.REVAMP_COUPON_CONFIG}/batch&lt;/font&gt;&lt;/span&gt;" style="whiteSpace=wrap;html=1;" parent="1" vertex="1">
          <mxGeometry x="-156" y="3135" width="520" height="30" as="geometry" />
        </mxCell>
        <mxCell id="-AG1-4Ak4wr8HE6v8jgh-13" value="1:1" style="text;html=1;align=center;verticalAlign=middle;resizable=0;points=[];autosize=1;strokeColor=none;fillColor=none;" parent="1" vertex="1">
          <mxGeometry x="382.37" y="2549" width="40" height="30" as="geometry" />
        </mxCell>
        <mxCell id="-AG1-4Ak4wr8HE6v8jgh-14" value="1:1" style="text;html=1;align=center;verticalAlign=middle;resizable=0;points=[];autosize=1;strokeColor=none;fillColor=none;" parent="1" vertex="1">
          <mxGeometry x="383.37" y="2613.5" width="40" height="30" as="geometry" />
        </mxCell>
        <mxCell id="-AG1-4Ak4wr8HE6v8jgh-19" value="1:2" style="text;html=1;align=center;verticalAlign=middle;resizable=0;points=[];autosize=1;strokeColor=none;fillColor=none;" parent="1" vertex="1">
          <mxGeometry x="379.37" y="2670.5" width="40" height="30" as="geometry" />
        </mxCell>
        <mxCell id="-AG1-4Ak4wr8HE6v8jgh-20" value="1:2" style="text;html=1;align=center;verticalAlign=middle;resizable=0;points=[];autosize=1;strokeColor=none;fillColor=none;" parent="1" vertex="1">
          <mxGeometry x="381.37" y="2736" width="40" height="30" as="geometry" />
        </mxCell>
        <mxCell id="-AG1-4Ak4wr8HE6v8jgh-37" value="1:1" style="text;html=1;align=center;verticalAlign=middle;resizable=0;points=[];autosize=1;strokeColor=none;fillColor=none;" parent="1" vertex="1">
          <mxGeometry x="383.37" y="2928" width="40" height="30" as="geometry" />
        </mxCell>
        <mxCell id="-AG1-4Ak4wr8HE6v8jgh-52" value="1:1" style="text;html=1;align=center;verticalAlign=middle;resizable=0;points=[];autosize=1;strokeColor=none;fillColor=none;" parent="1" vertex="1">
          <mxGeometry x="389.37" y="3120" width="40" height="30" as="geometry" />
        </mxCell>
        <mxCell id="ZFaFTTlmna6j10Dnj3p_-1" value="&lt;span style=&quot;color: rgb(23, 43, 77); font-family: -apple-system, BlinkMacSystemFont, &amp;quot;Segoe UI&amp;quot;, Roboto, Oxygen, Ubuntu, &amp;quot;Fira Sans&amp;quot;, &amp;quot;Droid Sans&amp;quot;, &amp;quot;Helvetica Neue&amp;quot;, sans-serif; font-size: 14px; font-weight: 700; text-align: left; background-color: rgb(255, 255, 255);&quot;&gt;Caffeine&lt;/span&gt;" style="whiteSpace=wrap;html=1;" parent="1" vertex="1">
          <mxGeometry x="435" y="3944" width="110" height="28" as="geometry" />
        </mxCell>
        <mxCell id="ZFaFTTlmna6j10Dnj3p_-4" style="edgeStyle=orthogonalEdgeStyle;rounded=0;orthogonalLoop=1;jettySize=auto;html=1;exitX=1;exitY=0.5;exitDx=0;exitDy=0;entryX=0;entryY=0.5;entryDx=0;entryDy=0;" parent="1" source="ZFaFTTlmna6j10Dnj3p_-3" target="ZFaFTTlmna6j10Dnj3p_-1" edge="1">
          <mxGeometry relative="1" as="geometry" />
        </mxCell>
        <mxCell id="ZFaFTTlmna6j10Dnj3p_-10" style="edgeStyle=orthogonalEdgeStyle;rounded=0;orthogonalLoop=1;jettySize=auto;html=1;exitX=1;exitY=0.5;exitDx=0;exitDy=0;entryX=0;entryY=0.5;entryDx=0;entryDy=0;" parent="1" source="ZFaFTTlmna6j10Dnj3p_-3" target="ZFaFTTlmna6j10Dnj3p_-8" edge="1">
          <mxGeometry relative="1" as="geometry" />
        </mxCell>
        <mxCell id="ZFaFTTlmna6j10Dnj3p_-3" value="&lt;span style=&quot;font-size: 18px; text-wrap: nowrap;&quot;&gt;/${experiment_id}/assignment&lt;/span&gt;" style="whiteSpace=wrap;html=1;" parent="1" vertex="1">
          <mxGeometry x="-162" y="3943" width="522" height="30" as="geometry" />
        </mxCell>
        <mxCell id="ZFaFTTlmna6j10Dnj3p_-6" value="1:1" style="text;html=1;align=center;verticalAlign=middle;resizable=0;points=[];autosize=1;strokeColor=none;fillColor=none;" parent="1" vertex="1">
          <mxGeometry x="390" y="3934" width="40" height="30" as="geometry" />
        </mxCell>
        <mxCell id="ZFaFTTlmna6j10Dnj3p_-7" value="1:4" style="text;html=1;align=center;verticalAlign=middle;resizable=0;points=[];autosize=1;strokeColor=none;fillColor=none;" parent="1" vertex="1">
          <mxGeometry x="391" y="3997" width="40" height="30" as="geometry" />
        </mxCell>
        <mxCell id="ZFaFTTlmna6j10Dnj3p_-8" value="DMP&lt;br&gt;segment-V2&lt;br&gt;/list/10124" style="whiteSpace=wrap;html=1;" parent="1" vertex="1">
          <mxGeometry x="435" y="3875" width="110" height="50" as="geometry" />
        </mxCell>
        <mxCell id="ZFaFTTlmna6j10Dnj3p_-11" value="1:1" style="text;html=1;align=center;verticalAlign=middle;resizable=0;points=[];autosize=1;strokeColor=none;fillColor=none;" parent="1" vertex="1">
          <mxGeometry x="389.37" y="3875" width="40" height="30" as="geometry" />
        </mxCell>
        <mxCell id="vJ7eMmziaktAMfShHW13-8" value="&lt;font style=&quot;font-size: 18px;&quot;&gt;/&lt;span style=&quot;color: rgb(23, 43, 77); font-family: -apple-system, &amp;quot;system-ui&amp;quot;, &amp;quot;Segoe UI&amp;quot;, Roboto, Oxygen, Ubuntu, &amp;quot;Fira Sans&amp;quot;, &amp;quot;Droid Sans&amp;quot;, &amp;quot;Helvetica Neue&amp;quot;, sans-serif; text-align: left; background-color: rgb(255, 255, 255);&quot;&gt;cashier/getPayMethodByPartnerId&lt;/span&gt;&lt;/font&gt;" style="text;html=1;align=center;verticalAlign=middle;resizable=0;points=[];autosize=1;strokeColor=none;fillColor=none;" parent="1" vertex="1">
          <mxGeometry x="-164" y="4355" width="300" height="40" as="geometry" />
        </mxCell>
        <mxCell id="vJ7eMmziaktAMfShHW13-9" value="&lt;font style=&quot;font-size: 18px;&quot;&gt;/cashier/checkStoreSupportVoucher&lt;/font&gt;" style="text;html=1;align=center;verticalAlign=middle;resizable=0;points=[];autosize=1;strokeColor=none;fillColor=none;" parent="1" vertex="1">
          <mxGeometry x="-174" y="4179" width="310" height="40" as="geometry" />
        </mxCell>
        <mxCell id="vJ7eMmziaktAMfShHW13-23" value="&lt;font style=&quot;font-size: 20px;&quot;&gt;1:3&lt;/font&gt;" style="edgeLabel;html=1;align=center;verticalAlign=middle;resizable=0;points=[];fontFamily=Helvetica;fontSize=11;fontColor=default;labelBackgroundColor=default;fillColor=none;gradientColor=none;" parent="1" vertex="1" connectable="0">
          <mxGeometry x="-62.63000086021498" y="4419" as="geometry">
            <mxPoint x="473" y="-234" as="offset" />
          </mxGeometry>
        </mxCell>
        <mxCell id="vJ7eMmziaktAMfShHW13-24" value="&lt;font style=&quot;font-size: 20px;&quot;&gt;1:1&lt;/font&gt;" style="edgeLabel;html=1;align=center;verticalAlign=middle;resizable=0;points=[];fontFamily=Helvetica;fontSize=11;fontColor=default;labelBackgroundColor=default;fillColor=none;gradientColor=none;" parent="1" vertex="1" connectable="0">
          <mxGeometry x="188.99999913978502" y="4467" as="geometry">
            <mxPoint x="221" y="-52" as="offset" />
          </mxGeometry>
        </mxCell>
        <mxCell id="vJ7eMmziaktAMfShHW13-25" value="&lt;font style=&quot;font-size: 20px;&quot;&gt;1:3&lt;/font&gt;" style="edgeLabel;html=1;align=center;verticalAlign=middle;resizable=0;points=[];fontFamily=Helvetica;fontSize=11;fontColor=default;labelBackgroundColor=default;fillColor=none;gradientColor=none;" parent="1" vertex="1" connectable="0">
          <mxGeometry x="405.999999139785" y="4346" as="geometry">
            <mxPoint x="5" y="-1" as="offset" />
          </mxGeometry>
        </mxCell>
        <mxCell id="vJ7eMmziaktAMfShHW13-26" value="&lt;font style=&quot;font-size: 20px;&quot;&gt;1:6&lt;/font&gt;" style="edgeLabel;html=1;align=center;verticalAlign=middle;resizable=0;points=[];fontFamily=Helvetica;fontSize=11;fontColor=default;labelBackgroundColor=default;fillColor=none;gradientColor=none;" parent="1" vertex="1" connectable="0">
          <mxGeometry x="50.36999913978502" y="4500" as="geometry">
            <mxPoint x="357" y="-231" as="offset" />
          </mxGeometry>
        </mxCell>
        <mxCell id="vJ7eMmziaktAMfShHW13-27" value="&lt;font style=&quot;font-size: 18px;&quot;&gt;/online/promo/client/display&lt;/font&gt;" style="text;html=1;align=center;verticalAlign=middle;resizable=0;points=[];autosize=1;strokeColor=none;fillColor=none;" parent="1" vertex="1">
          <mxGeometry x="439" y="4410" width="240" height="40" as="geometry" />
        </mxCell>
        <mxCell id="vJ7eMmziaktAMfShHW13-32" value="&lt;font style=&quot;font-size: 20px;&quot;&gt;1:1&lt;/font&gt;" style="edgeLabel;html=1;align=center;verticalAlign=middle;resizable=0;points=[];fontFamily=Helvetica;fontSize=11;fontColor=default;labelBackgroundColor=default;fillColor=none;gradientColor=none;" parent="1" vertex="1" connectable="0">
          <mxGeometry x="743.999999139785" y="4470" as="geometry">
            <mxPoint x="3" y="-6" as="offset" />
          </mxGeometry>
        </mxCell>
        <mxCell id="vJ7eMmziaktAMfShHW13-33" value="&lt;font style=&quot;font-size: 20px;&quot;&gt;1:1&lt;/font&gt;" style="edgeLabel;html=1;align=center;verticalAlign=middle;resizable=0;points=[];fontFamily=Helvetica;fontSize=11;fontColor=default;labelBackgroundColor=default;fillColor=none;gradientColor=none;" parent="1" vertex="1" connectable="0">
          <mxGeometry x="265.999999139785" y="4554" as="geometry">
            <mxPoint x="478" y="-180" as="offset" />
          </mxGeometry>
        </mxCell>
        <mxCell id="vJ7eMmziaktAMfShHW13-34" value="" style="endArrow=classic;html=1;rounded=0;entryX=0;entryY=0.5;entryDx=0;entryDy=0;" parent="1" edge="1" target="aZVJwk_nMkxhaGKlptH1-19">
          <mxGeometry width="50" height="50" relative="1" as="geometry">
            <mxPoint x="-386" y="4025" as="sourcePoint" />
            <mxPoint x="-335.9999999999998" y="4225" as="targetPoint" />
            <Array as="points">
              <mxPoint x="-386" y="4295" />
            </Array>
          </mxGeometry>
        </mxCell>
        <mxCell id="eDPh15qIm-yFBLzmt0Jg-1" value="&lt;b style=&quot;color: rgb(23, 43, 77); font-family: -apple-system, system-ui, &amp;quot;Segoe UI&amp;quot;, Roboto, Oxygen, Ubuntu, &amp;quot;Fira Sans&amp;quot;, &amp;quot;Droid Sans&amp;quot;, &amp;quot;Helvetica Neue&amp;quot;, sans-serif; font-size: 14px; text-align: left;&quot;&gt;Mysql&lt;/b&gt;" style="shape=cylinder3;whiteSpace=wrap;html=1;boundedLbl=1;backgroundOutline=1;size=15;" vertex="1" parent="1">
          <mxGeometry x="440" y="4169" width="110" height="60" as="geometry" />
        </mxCell>
        <mxCell id="eDPh15qIm-yFBLzmt0Jg-2" value="&lt;font style=&quot;font-size: 20px;&quot;&gt;1:1&lt;/font&gt;" style="edgeLabel;html=1;align=center;verticalAlign=middle;resizable=0;points=[];fontFamily=Helvetica;fontSize=11;fontColor=default;labelBackgroundColor=default;fillColor=none;gradientColor=none;" vertex="1" connectable="0" parent="1">
          <mxGeometry x="-141.99548387096803" y="3985.0000000000005" as="geometry">
            <mxPoint x="-221" y="328" as="offset" />
          </mxGeometry>
        </mxCell>
        <mxCell id="eDPh15qIm-yFBLzmt0Jg-3" value="&lt;font style=&quot;font-size: 20px;&quot;&gt;1:1&lt;/font&gt;" style="edgeLabel;html=1;align=center;verticalAlign=middle;resizable=0;points=[];fontFamily=Helvetica;fontSize=11;fontColor=default;labelBackgroundColor=default;fillColor=none;gradientColor=none;" vertex="1" connectable="0" parent="1">
          <mxGeometry x="-371.99615384615424" y="3946.0000000000005" as="geometry">
            <mxPoint x="155" y="314" as="offset" />
          </mxGeometry>
        </mxCell>
        <mxCell id="eDPh15qIm-yFBLzmt0Jg-5" value="&lt;font style=&quot;font-size: 20px;&quot;&gt;1:1&lt;/font&gt;" style="edgeLabel;html=1;align=center;verticalAlign=middle;resizable=0;points=[];fontFamily=Helvetica;fontSize=11;fontColor=default;labelBackgroundColor=default;fillColor=none;gradientColor=none;" vertex="1" connectable="0" parent="1">
          <mxGeometry x="-364.99615384615424" y="4025.0000000000005" as="geometry">
            <mxPoint x="155" y="314" as="offset" />
          </mxGeometry>
        </mxCell>
        <mxCell id="eDPh15qIm-yFBLzmt0Jg-7" style="edgeStyle=orthogonalEdgeStyle;rounded=0;orthogonalLoop=1;jettySize=auto;html=1;entryX=0;entryY=0.5;entryDx=0;entryDy=0;entryPerimeter=0;" edge="1" parent="1" source="vJ7eMmziaktAMfShHW13-9" target="eDPh15qIm-yFBLzmt0Jg-1">
          <mxGeometry relative="1" as="geometry" />
        </mxCell>
        <mxCell id="eDPh15qIm-yFBLzmt0Jg-9" value="&lt;b style=&quot;color: rgb(23, 43, 77); font-family: -apple-system, system-ui, &amp;quot;Segoe UI&amp;quot;, Roboto, Oxygen, Ubuntu, &amp;quot;Fira Sans&amp;quot;, &amp;quot;Droid Sans&amp;quot;, &amp;quot;Helvetica Neue&amp;quot;, sans-serif; font-size: 14px; text-align: left;&quot;&gt;Mysql&lt;/b&gt;" style="shape=cylinder3;whiteSpace=wrap;html=1;boundedLbl=1;backgroundOutline=1;size=15;" vertex="1" parent="1">
          <mxGeometry x="439" y="4250" width="110" height="60" as="geometry" />
        </mxCell>
        <mxCell id="eDPh15qIm-yFBLzmt0Jg-10" value="&lt;b style=&quot;color: rgb(23, 43, 77); font-family: -apple-system, system-ui, &amp;quot;Segoe UI&amp;quot;, Roboto, Oxygen, Ubuntu, &amp;quot;Fira Sans&amp;quot;, &amp;quot;Droid Sans&amp;quot;, &amp;quot;Helvetica Neue&amp;quot;, sans-serif; font-size: 14px; text-align: left;&quot;&gt;Redis&lt;/b&gt;" style="shape=cylinder3;whiteSpace=wrap;html=1;boundedLbl=1;backgroundOutline=1;size=15;" vertex="1" parent="1">
          <mxGeometry x="439" y="4330" width="110" height="60" as="geometry" />
        </mxCell>
        <mxCell id="eDPh15qIm-yFBLzmt0Jg-16" style="edgeStyle=orthogonalEdgeStyle;rounded=0;orthogonalLoop=1;jettySize=auto;html=1;entryX=0;entryY=0.5;entryDx=0;entryDy=0;entryPerimeter=0;" edge="1" parent="1" source="vJ7eMmziaktAMfShHW13-8" target="eDPh15qIm-yFBLzmt0Jg-10">
          <mxGeometry relative="1" as="geometry" />
        </mxCell>
        <mxCell id="eDPh15qIm-yFBLzmt0Jg-17" style="edgeStyle=orthogonalEdgeStyle;rounded=0;orthogonalLoop=1;jettySize=auto;html=1;entryX=0;entryY=0.5;entryDx=0;entryDy=0;entryPerimeter=0;" edge="1" parent="1" source="vJ7eMmziaktAMfShHW13-8" target="eDPh15qIm-yFBLzmt0Jg-9">
          <mxGeometry relative="1" as="geometry" />
        </mxCell>
        <mxCell id="eDPh15qIm-yFBLzmt0Jg-18" style="edgeStyle=orthogonalEdgeStyle;rounded=0;orthogonalLoop=1;jettySize=auto;html=1;entryX=-0.004;entryY=0.528;entryDx=0;entryDy=0;entryPerimeter=0;" edge="1" parent="1" source="vJ7eMmziaktAMfShHW13-8" target="vJ7eMmziaktAMfShHW13-27">
          <mxGeometry relative="1" as="geometry" />
        </mxCell>
        <mxCell id="eDPh15qIm-yFBLzmt0Jg-19" value="&lt;b style=&quot;color: rgb(23, 43, 77); font-family: -apple-system, system-ui, &amp;quot;Segoe UI&amp;quot;, Roboto, Oxygen, Ubuntu, &amp;quot;Fira Sans&amp;quot;, &amp;quot;Droid Sans&amp;quot;, &amp;quot;Helvetica Neue&amp;quot;, sans-serif; font-size: 14px; text-align: left;&quot;&gt;Mysql&lt;/b&gt;" style="shape=cylinder3;whiteSpace=wrap;html=1;boundedLbl=1;backgroundOutline=1;size=15;" vertex="1" parent="1">
          <mxGeometry x="774" y="4360" width="110" height="60" as="geometry" />
        </mxCell>
        <mxCell id="eDPh15qIm-yFBLzmt0Jg-20" value="&lt;b style=&quot;color: rgb(23, 43, 77); font-family: -apple-system, system-ui, &amp;quot;Segoe UI&amp;quot;, Roboto, Oxygen, Ubuntu, &amp;quot;Fira Sans&amp;quot;, &amp;quot;Droid Sans&amp;quot;, &amp;quot;Helvetica Neue&amp;quot;, sans-serif; font-size: 14px; text-align: left;&quot;&gt;Redis&lt;/b&gt;" style="shape=cylinder3;whiteSpace=wrap;html=1;boundedLbl=1;backgroundOutline=1;size=15;" vertex="1" parent="1">
          <mxGeometry x="774" y="4440" width="110" height="60" as="geometry" />
        </mxCell>
        <mxCell id="eDPh15qIm-yFBLzmt0Jg-21" style="edgeStyle=orthogonalEdgeStyle;rounded=0;orthogonalLoop=1;jettySize=auto;html=1;entryX=0;entryY=0.5;entryDx=0;entryDy=0;entryPerimeter=0;" edge="1" parent="1" source="vJ7eMmziaktAMfShHW13-27" target="eDPh15qIm-yFBLzmt0Jg-19">
          <mxGeometry relative="1" as="geometry" />
        </mxCell>
        <mxCell id="eDPh15qIm-yFBLzmt0Jg-22" style="edgeStyle=orthogonalEdgeStyle;rounded=0;orthogonalLoop=1;jettySize=auto;html=1;entryX=0;entryY=0;entryDx=0;entryDy=37.5;entryPerimeter=0;" edge="1" parent="1" source="vJ7eMmziaktAMfShHW13-27" target="eDPh15qIm-yFBLzmt0Jg-20">
          <mxGeometry relative="1" as="geometry" />
        </mxCell>
        <mxCell id="eDPh15qIm-yFBLzmt0Jg-23" value="&lt;span style=&quot;color: rgb(23, 43, 77); font-family: -apple-system, &amp;quot;system-ui&amp;quot;, &amp;quot;Segoe UI&amp;quot;, Roboto, Oxygen, Ubuntu, &amp;quot;Fira Sans&amp;quot;, &amp;quot;Droid Sans&amp;quot;, &amp;quot;Helvetica Neue&amp;quot;, sans-serif; font-size: 14px; font-weight: 700; text-align: left; background-color: rgb(255, 255, 255);&quot;&gt;MongoDB&lt;/span&gt;" style="shape=cylinder3;whiteSpace=wrap;html=1;boundedLbl=1;backgroundOutline=1;size=15;" vertex="1" parent="1">
          <mxGeometry x="435" y="3993" width="110" height="60" as="geometry" />
        </mxCell>
        <mxCell id="eDPh15qIm-yFBLzmt0Jg-24" style="edgeStyle=orthogonalEdgeStyle;rounded=0;orthogonalLoop=1;jettySize=auto;html=1;exitX=1;exitY=0.5;exitDx=0;exitDy=0;entryX=0;entryY=0.5;entryDx=0;entryDy=0;entryPerimeter=0;" edge="1" parent="1" source="ZFaFTTlmna6j10Dnj3p_-3" target="eDPh15qIm-yFBLzmt0Jg-23">
          <mxGeometry relative="1" as="geometry" />
        </mxCell>
        <mxCell id="eDPh15qIm-yFBLzmt0Jg-25" value="&lt;span style=&quot;color: rgb(23, 43, 77); font-family: -apple-system, BlinkMacSystemFont, &amp;quot;Segoe UI&amp;quot;, Roboto, Oxygen, Ubuntu, &amp;quot;Fira Sans&amp;quot;, &amp;quot;Droid Sans&amp;quot;, &amp;quot;Helvetica Neue&amp;quot;, sans-serif; font-size: 14px; font-weight: 700; text-align: left; background-color: rgb(255, 255, 255);&quot;&gt;Caffeine&lt;/span&gt;" style="whiteSpace=wrap;html=1;" vertex="1" parent="1">
          <mxGeometry x="422.37" y="2560.5" width="110" height="28" as="geometry" />
        </mxCell>
        <mxCell id="eDPh15qIm-yFBLzmt0Jg-26" value="&lt;span style=&quot;color: rgb(23, 43, 77); font-family: -apple-system, &amp;quot;system-ui&amp;quot;, &amp;quot;Segoe UI&amp;quot;, Roboto, Oxygen, Ubuntu, &amp;quot;Fira Sans&amp;quot;, &amp;quot;Droid Sans&amp;quot;, &amp;quot;Helvetica Neue&amp;quot;, sans-serif; font-size: 14px; font-weight: 700; text-align: left; background-color: rgb(255, 255, 255);&quot;&gt;Couchbase&lt;/span&gt;" style="shape=cylinder3;whiteSpace=wrap;html=1;boundedLbl=1;backgroundOutline=1;size=15;" vertex="1" parent="1">
          <mxGeometry x="422.37" y="2609.5" width="110" height="60" as="geometry" />
        </mxCell>
        <mxCell id="eDPh15qIm-yFBLzmt0Jg-28" style="edgeStyle=orthogonalEdgeStyle;rounded=0;orthogonalLoop=1;jettySize=auto;html=1;exitX=1;exitY=0.5;exitDx=0;exitDy=0;entryX=0;entryY=0.5;entryDx=0;entryDy=0;entryPerimeter=0;" edge="1" parent="1" source="-AG1-4Ak4wr8HE6v8jgh-1" target="eDPh15qIm-yFBLzmt0Jg-26">
          <mxGeometry relative="1" as="geometry" />
        </mxCell>
        <mxCell id="eDPh15qIm-yFBLzmt0Jg-30" value="&lt;span style=&quot;color: rgb(23, 43, 77); font-family: -apple-system, BlinkMacSystemFont, &amp;quot;Segoe UI&amp;quot;, Roboto, Oxygen, Ubuntu, &amp;quot;Fira Sans&amp;quot;, &amp;quot;Droid Sans&amp;quot;, &amp;quot;Helvetica Neue&amp;quot;, sans-serif; font-size: 14px; font-weight: 700; text-align: left; background-color: rgb(255, 255, 255);&quot;&gt;Caffeine&lt;/span&gt;" style="whiteSpace=wrap;html=1;" vertex="1" parent="1">
          <mxGeometry x="423.37" y="2680.5" width="110" height="28" as="geometry" />
        </mxCell>
        <mxCell id="eDPh15qIm-yFBLzmt0Jg-31" value="&lt;span style=&quot;color: rgb(23, 43, 77); font-family: -apple-system, &amp;quot;system-ui&amp;quot;, &amp;quot;Segoe UI&amp;quot;, Roboto, Oxygen, Ubuntu, &amp;quot;Fira Sans&amp;quot;, &amp;quot;Droid Sans&amp;quot;, &amp;quot;Helvetica Neue&amp;quot;, sans-serif; font-size: 14px; font-weight: 700; text-align: left; background-color: rgb(255, 255, 255);&quot;&gt;Couchbase&lt;/span&gt;" style="shape=cylinder3;whiteSpace=wrap;html=1;boundedLbl=1;backgroundOutline=1;size=15;" vertex="1" parent="1">
          <mxGeometry x="423.37" y="2729.5" width="110" height="60" as="geometry" />
        </mxCell>
        <mxCell id="eDPh15qIm-yFBLzmt0Jg-35" value="&lt;span style=&quot;color: rgb(23, 43, 77); font-family: -apple-system, &amp;quot;system-ui&amp;quot;, &amp;quot;Segoe UI&amp;quot;, Roboto, Oxygen, Ubuntu, &amp;quot;Fira Sans&amp;quot;, &amp;quot;Droid Sans&amp;quot;, &amp;quot;Helvetica Neue&amp;quot;, sans-serif; font-size: 14px; font-weight: 700; text-align: left; background-color: rgb(255, 255, 255);&quot;&gt;Couchbase&lt;/span&gt;" style="shape=cylinder3;whiteSpace=wrap;html=1;boundedLbl=1;backgroundOutline=1;size=15;" vertex="1" parent="1">
          <mxGeometry x="430.37" y="3120" width="110" height="60" as="geometry" />
        </mxCell>
        <mxCell id="eDPh15qIm-yFBLzmt0Jg-37" style="edgeStyle=orthogonalEdgeStyle;rounded=0;orthogonalLoop=1;jettySize=auto;html=1;exitX=1;exitY=0.5;exitDx=0;exitDy=0;entryX=0;entryY=0.5;entryDx=0;entryDy=0;entryPerimeter=0;" edge="1" parent="1" source="-AG1-4Ak4wr8HE6v8jgh-6" target="eDPh15qIm-yFBLzmt0Jg-35">
          <mxGeometry relative="1" as="geometry" />
        </mxCell>
        <mxCell id="eDPh15qIm-yFBLzmt0Jg-38" value="&lt;span style=&quot;color: rgb(23, 43, 77); font-family: -apple-system, BlinkMacSystemFont, &amp;quot;Segoe UI&amp;quot;, Roboto, Oxygen, Ubuntu, &amp;quot;Fira Sans&amp;quot;, &amp;quot;Droid Sans&amp;quot;, &amp;quot;Helvetica Neue&amp;quot;, sans-serif; font-size: 14px; font-weight: 700; text-align: left; background-color: rgb(255, 255, 255);&quot;&gt;Caffeine&lt;/span&gt;" style="whiteSpace=wrap;html=1;" vertex="1" parent="1">
          <mxGeometry x="423.37" y="2807.5" width="110" height="28" as="geometry" />
        </mxCell>
        <mxCell id="eDPh15qIm-yFBLzmt0Jg-39" value="&lt;span style=&quot;color: rgb(23, 43, 77); font-family: -apple-system, &amp;quot;system-ui&amp;quot;, &amp;quot;Segoe UI&amp;quot;, Roboto, Oxygen, Ubuntu, &amp;quot;Fira Sans&amp;quot;, &amp;quot;Droid Sans&amp;quot;, &amp;quot;Helvetica Neue&amp;quot;, sans-serif; font-size: 14px; font-weight: 700; text-align: left; background-color: rgb(255, 255, 255);&quot;&gt;Couchbase&lt;/span&gt;" style="shape=cylinder3;whiteSpace=wrap;html=1;boundedLbl=1;backgroundOutline=1;size=15;" vertex="1" parent="1">
          <mxGeometry x="423.37" y="2856.5" width="110" height="60" as="geometry" />
        </mxCell>
        <mxCell id="eDPh15qIm-yFBLzmt0Jg-42" value="1:1" style="text;html=1;align=center;verticalAlign=middle;resizable=0;points=[];autosize=1;strokeColor=none;fillColor=none;" vertex="1" parent="1">
          <mxGeometry x="383.37" y="2800" width="40" height="30" as="geometry" />
        </mxCell>
        <mxCell id="eDPh15qIm-yFBLzmt0Jg-43" value="1:1" style="text;html=1;align=center;verticalAlign=middle;resizable=0;points=[];autosize=1;strokeColor=none;fillColor=none;" vertex="1" parent="1">
          <mxGeometry x="382.37" y="2864" width="40" height="30" as="geometry" />
        </mxCell>
        <mxCell id="eDPh15qIm-yFBLzmt0Jg-44" value="&lt;span style=&quot;color: rgb(23, 43, 77); font-family: -apple-system, &amp;quot;system-ui&amp;quot;, &amp;quot;Segoe UI&amp;quot;, Roboto, Oxygen, Ubuntu, &amp;quot;Fira Sans&amp;quot;, &amp;quot;Droid Sans&amp;quot;, &amp;quot;Helvetica Neue&amp;quot;, sans-serif; font-size: 14px; font-weight: 700; text-align: left; background-color: rgb(255, 255, 255);&quot;&gt;Couchbase&lt;/span&gt;" style="shape=cylinder3;whiteSpace=wrap;html=1;boundedLbl=1;backgroundOutline=1;size=15;" vertex="1" parent="1">
          <mxGeometry x="423.37" y="2928" width="110" height="60" as="geometry" />
        </mxCell>
        <mxCell id="eDPh15qIm-yFBLzmt0Jg-45" style="edgeStyle=orthogonalEdgeStyle;rounded=0;orthogonalLoop=1;jettySize=auto;html=1;exitX=1;exitY=0.5;exitDx=0;exitDy=0;entryX=0;entryY=0.5;entryDx=0;entryDy=0;entryPerimeter=0;" edge="1" parent="1" source="-AG1-4Ak4wr8HE6v8jgh-4" target="eDPh15qIm-yFBLzmt0Jg-44">
          <mxGeometry relative="1" as="geometry" />
        </mxCell>
        <mxCell id="eDPh15qIm-yFBLzmt0Jg-46" value="&lt;span style=&quot;color: rgb(23, 43, 77); font-family: -apple-system, BlinkMacSystemFont, &amp;quot;Segoe UI&amp;quot;, Roboto, Oxygen, Ubuntu, &amp;quot;Fira Sans&amp;quot;, &amp;quot;Droid Sans&amp;quot;, &amp;quot;Helvetica Neue&amp;quot;, sans-serif; font-size: 14px; font-weight: 700; text-align: left; background-color: rgb(255, 255, 255);&quot;&gt;Caffeine&lt;/span&gt;" style="whiteSpace=wrap;html=1;" vertex="1" parent="1">
          <mxGeometry x="430" y="3007" width="110" height="28" as="geometry" />
        </mxCell>
        <mxCell id="eDPh15qIm-yFBLzmt0Jg-47" value="&lt;span style=&quot;color: rgb(23, 43, 77); font-family: -apple-system, &amp;quot;system-ui&amp;quot;, &amp;quot;Segoe UI&amp;quot;, Roboto, Oxygen, Ubuntu, &amp;quot;Fira Sans&amp;quot;, &amp;quot;Droid Sans&amp;quot;, &amp;quot;Helvetica Neue&amp;quot;, sans-serif; font-size: 14px; font-weight: 700; text-align: left; background-color: rgb(255, 255, 255);&quot;&gt;Couchbase&lt;/span&gt;" style="shape=cylinder3;whiteSpace=wrap;html=1;boundedLbl=1;backgroundOutline=1;size=15;" vertex="1" parent="1">
          <mxGeometry x="430" y="3056" width="110" height="60" as="geometry" />
        </mxCell>
        <mxCell id="eDPh15qIm-yFBLzmt0Jg-49" style="edgeStyle=orthogonalEdgeStyle;rounded=0;orthogonalLoop=1;jettySize=auto;html=1;exitX=1;exitY=0.5;exitDx=0;exitDy=0;entryX=0;entryY=0.5;entryDx=0;entryDy=0;entryPerimeter=0;" edge="1" parent="1" source="-AG1-4Ak4wr8HE6v8jgh-5" target="eDPh15qIm-yFBLzmt0Jg-47">
          <mxGeometry relative="1" as="geometry" />
        </mxCell>
        <mxCell id="eDPh15qIm-yFBLzmt0Jg-50" value="1:1" style="text;html=1;align=center;verticalAlign=middle;resizable=0;points=[];autosize=1;strokeColor=none;fillColor=none;" vertex="1" parent="1">
          <mxGeometry x="387.37" y="2996" width="40" height="30" as="geometry" />
        </mxCell>
        <mxCell id="eDPh15qIm-yFBLzmt0Jg-51" value="1:1" style="text;html=1;align=center;verticalAlign=middle;resizable=0;points=[];autosize=1;strokeColor=none;fillColor=none;" vertex="1" parent="1">
          <mxGeometry x="386.37" y="3062" width="40" height="30" as="geometry" />
        </mxCell>
      </root>
    </mxGraphModel>
  </diagram>
</mxfile>
